<?xml version="1.0" standalone="no"?>
<!DOCTYPE svg PUBLIC "-//W3C//DTD SVG 20010904//EN"
 "http://www.w3.org/TR/2001/REC-SVG-20010904/DTD/svg10.dtd">
<svg version="1.0" xmlns="http://www.w3.org/2000/svg"
 width="1240.000000pt" height="1240.000000pt" viewBox="0 0 1240.000000 1240.000000"
 preserveAspectRatio="xMidYMid meet">

<g transform="translate(0.000000,1240.000000) scale(0.100000,-0.100000)"
fill="#000000" stroke="none">
<path d="M6615 10431 c-126 -21 -289 -83 -387 -147 -26 -17 -29 -17 -105 9
-199 68 -380 97 -605 97 -505 0 -959 -170 -1280 -478 l-57 -55 -83 18 c-116
26 -286 24 -401 -4 -252 -60 -467 -218 -592 -434 l-50 -86 -46 -1 c-26 0 -85
-7 -132 -15 -444 -77 -804 -385 -946 -811 -33 -98 -61 -241 -61 -312 0 -41 -5
-50 -64 -113 -199 -210 -340 -533 -392 -895 -20 -143 -23 -425 -5 -569 59
-476 246 -890 531 -1176 213 -214 411 -318 665 -349 143 -18 282 1 434 60 l80
31 58 -29 c182 -92 424 -122 617 -78 l53 13 28 -86 c122 -376 425 -735 760
-903 235 -118 465 -138 670 -57 l50 19 208 -70 c395 -133 713 -326 988 -600
331 -330 539 -742 619 -1230 27 -160 26 -158 63 -181 30 -18 55 -19 490 -19
l459 0 34 34 c23 23 34 43 34 62 -1 16 -34 274 -74 574 -41 300 -73 546 -72
547 0 1 57 -3 126 -9 326 -25 684 49 996 208 176 89 202 107 329 222 255 229
418 499 480 794 35 164 39 367 9 523 -6 31 -5 32 63 54 37 12 113 44 168 71
333 165 575 492 642 864 22 125 21 384 -2 485 -18 77 -59 183 -96 245 -20 34
-20 35 -1 73 71 139 114 335 114 518 0 431 -218 815 -588 1038 -34 20 -78 44
-97 52 -29 12 -39 24 -57 71 -193 517 -677 974 -1199 1135 l-113 34 -55 80
c-110 157 -289 313 -458 398 -249 125 -561 157 -839 86 l-78 -20 -67 64 c-112
109 -254 187 -411 227 -94 24 -272 34 -355 21z m350 -235 c86 -29 187 -85 249
-139 l39 -33 -49 -19 c-82 -30 -224 -104 -314 -163 -126 -82 -194 -136 -307
-246 -76 -73 -104 -107 -109 -131 -12 -66 54 -134 118 -121 19 4 62 36 112 83
338 319 668 473 1051 490 242 11 522 -48 661 -140 74 -48 183 -163 241 -252
86 -133 86 -133 194 -160 235 -59 471 -187 674 -364 204 -178 393 -451 479
-691 15 -41 34 -85 41 -97 8 -12 53 -40 100 -62 283 -132 482 -375 557 -677
31 -126 31 -333 0 -457 -20 -81 -59 -187 -69 -187 -2 0 -25 11 -51 24 -133 67
-305 62 -457 -13 -122 -61 -234 -184 -264 -294 -22 -78 22 -137 102 -137 46 0
75 24 102 86 108 245 464 260 582 24 52 -105 76 -222 76 -385 1 -160 -19 -262
-77 -395 -103 -239 -312 -442 -546 -533 -113 -43 -104 -45 -125 25 -25 87
-110 249 -181 349 -84 118 -224 255 -341 332 -227 151 -451 224 -763 248 -122
10 -142 9 -172 -5 -65 -31 -79 -116 -29 -167 26 -25 37 -29 85 -29 99 0 259
-21 371 -50 221 -56 402 -157 555 -310 122 -121 239 -306 283 -445 39 -123 72
-419 64 -575 -14 -280 -179 -590 -425 -799 -162 -138 -207 -162 -301 -164 -90
-1 -161 26 -227 86 -125 114 -147 275 -58 422 47 80 50 127 8 169 -36 36 -100
36 -142 1 -65 -54 -132 -229 -132 -345 0 -70 27 -179 60 -247 36 -73 112 -160
175 -200 25 -15 45 -31 45 -34 0 -7 -135 -41 -240 -61 -104 -19 -416 -16 -538
6 -85 15 -108 16 -133 6 -39 -17 -59 -46 -59 -88 0 -29 131 -1037 145 -1114
l4 -28 -324 0 -324 0 -7 37 c-74 434 -261 845 -527 1162 -98 116 -121 172
-115 278 20 312 413 427 594 173 64 -89 89 -110 133 -110 52 0 90 32 98 82 14
90 -112 245 -258 317 -196 96 -411 72 -585 -67 -85 -67 -184 -241 -184 -322 0
-11 -3 -20 -7 -20 -3 0 -40 26 -82 59 -256 197 -613 384 -896 468 -164 49
-306 187 -365 356 -31 87 -38 231 -15 317 51 200 194 349 395 416 56 18 163
23 298 13 61 -4 65 -3 93 29 41 46 40 93 -4 137 -29 29 -42 34 -121 45 -270
38 -560 -79 -721 -291 -56 -75 -118 -200 -140 -284 -65 -245 3 -529 169 -713
l36 -39 -31 -7 c-60 -12 -166 -6 -240 13 -171 44 -315 134 -479 300 -194 195
-313 399 -372 633 l-31 123 -71 75 c-141 149 -206 278 -214 426 -8 157 42 268
188 415 104 104 228 192 401 283 114 60 133 76 143 118 8 36 -15 93 -45 109
-58 30 -116 10 -327 -115 -184 -109 -300 -206 -404 -335 -220 -274 -225 -599
-14 -901 l55 -78 -37 -6 c-101 -16 -258 3 -365 45 -27 11 -80 38 -117 59 -36
22 -76 40 -88 40 -12 0 -56 -18 -99 -39 -119 -60 -188 -76 -328 -75 -108 1
-129 4 -208 32 -49 17 -106 43 -127 57 -54 37 -106 118 -125 192 -39 154 52
326 203 384 49 18 71 20 151 16 58 -4 103 -1 115 5 37 18 56 51 56 96 0 89
-72 121 -248 110 -182 -12 -355 -126 -437 -289 -29 -56 -55 -153 -55 -205 l-1
-39 -25 30 c-271 321 -431 888 -385 1365 39 394 162 691 383 926 l82 86 3 76
c11 280 107 507 293 692 187 187 419 286 690 293 131 4 134 6 189 121 46 99
118 195 182 246 55 43 160 95 264 131 97 33 219 33 290 1 141 -65 244 -280
217 -454 -16 -108 -47 -162 -154 -268 -158 -158 -228 -308 -228 -490 0 -78 2
-90 24 -113 69 -74 180 -27 178 74 -6 276 235 515 616 612 74 18 115 22 267
21 156 0 191 -3 265 -23 283 -76 462 -231 505 -436 21 -104 41 -125 115 -125
46 0 85 30 96 74 12 48 -16 165 -62 255 -120 240 -384 406 -725 457 -200 29
-468 5 -645 -59 l-42 -15 -1 101 c0 126 -18 195 -77 314 l-46 93 33 41 c44 55
187 174 280 232 436 271 1014 329 1494 148 60 -23 118 -41 129 -41 11 0 57 25
102 55 152 103 267 137 444 131 92 -3 131 -9 195 -30z"/>
<path d="M8514 8984 c-37 -18 -54 -51 -54 -101 0 -32 7 -43 58 -87 266 -233
427 -459 516 -726 54 -165 69 -281 63 -483 -6 -189 -19 -265 -73 -424 -19 -55
-34 -112 -34 -126 0 -61 81 -109 142 -84 18 8 38 20 44 28 20 25 61 151 88
269 85 384 44 764 -119 1095 -97 199 -242 389 -408 537 -140 123 -161 133
-223 102z"/>
<path d="M6845 8743 c-143 -30 -286 -128 -352 -240 -32 -55 -26 -100 18 -137
54 -46 118 -31 169 40 145 202 461 169 566 -58 24 -52 29 -76 29 -138 -1 -63
-6 -86 -33 -144 -18 -37 -32 -78 -32 -90 0 -36 36 -83 73 -95 91 -30 167 69
197 256 43 263 -141 536 -401 598 -59 14 -187 18 -234 8z"/>
<path d="M3000 8155 c-292 -60 -520 -272 -602 -562 -31 -111 -31 -296 1 -407
61 -218 210 -398 410 -497 86 -43 135 -43 173 0 32 36 38 93 12 129 -8 12 -49
38 -89 58 -136 66 -235 179 -293 332 -33 88 -37 256 -8 342 85 250 299 409
551 410 39 0 95 -7 125 -16 30 -8 78 -18 107 -21 46 -5 54 -3 77 20 46 46 46
108 2 152 -61 61 -306 93 -466 60z"/>
<path d="M5847 8040 c-41 -33 -49 -74 -38 -190 39 -372 224 -685 527 -886 306
-204 691 -255 1041 -137 175 58 311 142 452 278 225 217 361 526 361 822 0 67
-2 74 -31 102 -42 42 -95 43 -140 3 -31 -28 -32 -32 -40 -138 -37 -503 -431
-891 -934 -920 -392 -23 -774 210 -942 574 -44 94 -81 239 -88 345 -9 116 -12
125 -48 147 -41 26 -87 25 -120 0z"/>
<path d="M4546 7505 c-42 -22 -55 -44 -56 -93 0 -35 6 -49 29 -73 25 -25 37
-29 83 -29 77 0 178 -24 255 -61 94 -44 218 -168 262 -262 102 -215 67 -459
-91 -632 -98 -108 -216 -168 -367 -187 -72 -10 -90 -16 -113 -39 -40 -39 -39
-99 1 -140 27 -26 36 -29 96 -29 218 0 457 128 590 315 106 150 147 278 147
460 0 147 -21 236 -87 364 -75 145 -196 261 -354 341 -122 61 -337 97 -395 65z"/>
<path d="M6932 5795 c-41 -35 -48 -73 -24 -128 48 -108 222 -332 337 -433 53
-46 68 -66 80 -107 19 -65 19 -110 -1 -177 -73 -246 -378 -320 -553 -135 -27
29 -56 68 -64 87 -33 80 -122 104 -178 49 -21 -22 -29 -39 -29 -66 0 -56 55
-152 129 -226 190 -189 477 -211 697 -53 102 72 195 216 210 323 11 84 4 83
112 30 110 -55 240 -99 387 -131 188 -41 659 -27 768 23 61 28 73 122 22 169
-31 29 -62 30 -206 7 -122 -20 -357 -23 -474 -6 -235 32 -467 131 -664 282
-132 101 -311 309 -377 439 -13 26 -34 54 -46 62 -35 25 -91 20 -126 -9z"/>
</g>
</svg>
