<?xml version="1.0" standalone="no"?>
<!DOCTYPE svg PUBLIC "-//W3C//DTD SVG 20010904//EN"
 "http://www.w3.org/TR/2001/REC-SVG-20010904/DTD/svg10.dtd">
<svg version="1.0" xmlns="http://www.w3.org/2000/svg"
 width="559.000000pt" height="446.000000pt" viewBox="0 0 559.000000 446.000000"
 preserveAspectRatio="xMidYMid meet">

<g transform="translate(0.000000,446.000000) scale(0.100000,-0.100000)"
fill="#FFFFFF" stroke="none">
<path d="M2246 4452 c-4 -6 0 -31 8 -56 80 -235 109 -543 71 -746 -72 -379
-72 -423 2 -510 35 -40 174 -136 296 -204 97 -54 200 -153 238 -231 76 -154
20 -246 -225 -370 -179 -90 -184 -115 -66 -290 59 -86 80 -136 80 -187 0 -83
-71 -165 -223 -258 -49 -30 -90 -57 -92 -60 -2 -4 22 -15 53 -25 59 -18 192
-97 192 -114 0 -16 -39 -102 -60 -131 -11 -15 -39 -37 -62 -48 -68 -32 -98
-67 -98 -117 0 -23 7 -63 16 -89 25 -73 16 -165 -22 -218 -56 -80 -174 -144
-339 -185 -52 -12 -112 -17 -235 -16 -217 0 -418 23 -630 73 -95 22 -178 40
-185 40 -23 0 -78 -226 -96 -395 -15 -136 1 -330 25 -304 2 2 -1 33 -6 69 -11
72 -4 242 12 335 11 60 61 267 66 273 1 2 83 -15 181 -38 234 -54 420 -73 668
-67 211 5 260 14 385 73 148 70 210 150 209 269 0 33 -6 78 -14 100 -17 47
-19 99 -5 126 6 10 37 32 69 48 37 19 66 43 82 68 34 50 63 128 56 147 -7 18
-69 58 -155 101 l-63 32 89 56 c185 118 239 224 178 352 -13 28 -49 88 -80
134 -66 99 -72 136 -28 167 15 11 77 46 138 78 116 60 190 121 218 181 25 52
21 133 -10 191 -60 113 -133 178 -334 298 -153 90 -222 150 -246 212 -22 57
-15 159 21 329 32 150 43 369 25 512 -6 54 -27 157 -45 228 -40 157 -49 182
-59 167z"/>
<path d="M3677 4373 c-94 -307 -105 -531 -42 -843 39 -190 42 -256 16 -315
-12 -28 -32 -61 -44 -74 -24 -26 -170 -124 -285 -190 -161 -93 -274 -238 -276
-351 -1 -108 66 -180 260 -279 171 -87 175 -98 79 -241 -72 -107 -95 -162 -95
-227 0 -86 64 -166 207 -255 l82 -52 -67 -32 c-88 -41 -152 -89 -152 -113 0
-25 34 -105 61 -142 11 -16 43 -41 69 -54 62 -31 90 -61 90 -95 0 -15 -9 -62
-20 -106 -17 -67 -19 -87 -9 -132 20 -96 109 -180 251 -236 112 -44 193 -56
381 -56 269 1 468 27 737 96 30 8 58 14 62 14 11 0 45 -118 69 -243 23 -116
31 -324 16 -399 -5 -22 -4 -38 1 -38 16 0 22 56 22 195 0 143 -15 252 -57 408
-20 76 -30 97 -43 97 -10 0 -92 -18 -182 -40 -245 -59 -595 -92 -763 -71 -123
15 -197 35 -280 75 -172 85 -227 182 -186 331 35 128 26 159 -58 204 -32 16
-64 38 -74 48 -24 28 -70 132 -63 148 8 23 117 88 185 110 l64 22 -99 61
c-107 67 -162 114 -200 169 -48 71 -25 174 66 298 45 61 70 113 70 145 0 35
-52 77 -169 136 -234 118 -290 230 -191 382 60 92 125 147 294 249 87 53 180
117 205 142 51 50 81 117 81 180 0 35 -23 173 -56 341 -23 116 -23 343 0 475
10 55 33 152 51 215 18 63 30 119 26 123 -4 4 -20 -32 -34 -80z"/>
<path d="M4811 4358 c-48 -13 -151 -120 -183 -190 -51 -107 -62 -169 -62 -348
0 -195 5 -220 119 -539 41 -116 88 -259 104 -318 31 -111 64 -273 58 -280 -2
-2 -20 23 -40 56 -21 32 -97 117 -173 192 -216 213 -324 375 -324 485 0 64 56
244 81 262 23 16 24 35 3 52 -22 19 -51 -10 -36 -36 8 -14 2 -41 -24 -113 -39
-107 -48 -121 -78 -121 -30 0 -206 178 -206 208 0 28 -27 40 -46 20 -20 -19
-7 -48 20 -48 49 0 236 -226 321 -385 32 -60 71 -129 86 -152 16 -23 29 -46
29 -52 0 -22 -40 -19 -131 8 -122 37 -149 51 -187 98 -45 55 -57 66 -155 144
-48 39 -94 84 -103 100 -18 37 -49 36 -49 -1 0 -19 6 -26 27 -30 34 -6 215
-153 230 -185 6 -13 8 -35 4 -48 -8 -32 -84 -60 -167 -62 -61 -2 -79 -9 -79
-30 0 -21 33 -28 47 -9 14 19 71 32 183 40 68 6 86 3 170 -25 52 -18 147 -58
210 -89 100 -49 126 -67 201 -141 71 -71 129 -149 129 -176 0 -14 -31 -1 -95
40 -110 71 -188 86 -345 65 l-99 -13 -102 34 c-77 25 -104 39 -112 56 -15 33
-57 32 -57 -2 0 -21 5 -25 28 -25 36 0 205 -66 226 -88 13 -15 13 -21 3 -34
-22 -29 -228 -188 -243 -188 -27 0 -93 40 -99 60 -8 25 -35 26 -35 1 0 -11 -6
-22 -12 -24 -7 -3 0 -6 15 -6 33 -1 92 -24 101 -40 5 -7 -10 -19 -36 -31 -24
-11 -32 -17 -18 -14 14 4 38 13 54 21 48 25 53 2 11 -61 -25 -38 -47 -59 -71
-68 -22 -8 -31 -15 -24 -22 16 -16 60 23 105 90 53 80 88 119 168 187 84 71
140 107 194 123 36 11 45 11 58 -2 13 -13 12 -21 -5 -66 -26 -69 -18 -73 15
-8 34 68 74 87 149 69 108 -25 207 -101 261 -202 23 -41 29 -67 32 -132 4 -79
3 -80 -14 -55 -73 100 -137 134 -248 128 -87 -4 -152 -39 -200 -107 -28 -40
-30 -49 -30 -129 0 -100 22 -153 78 -196 104 -80 231 -75 328 11 101 91 134
219 127 493 -3 96 -13 230 -24 296 l-18 122 69 91 c92 122 155 153 238 117 44
-19 206 -163 218 -193 11 -30 43 -27 47 5 3 16 -2 22 -16 22 -37 0 -202 146
-202 178 0 24 28 34 153 52 60 9 81 9 92 0 20 -16 45 -5 45 19 0 25 -20 31
-45 15 -28 -18 -127 -33 -285 -44 -74 -5 -144 -10 -155 -12 -29 -4 -31 36 -5
106 45 119 139 196 242 196 60 0 183 -27 219 -48 29 -16 63 -10 56 11 -2 6
-17 11 -33 11 -50 -2 -178 35 -196 57 -26 30 -22 47 15 69 17 11 26 20 20 20
-7 0 -13 4 -13 9 0 8 48 75 113 158 10 12 17 23 14 23 -3 0 -41 -44 -84 -97
-108 -132 -145 -166 -224 -208 -118 -62 -142 -43 -114 91 14 67 22 86 42 100
19 12 22 19 13 27 -9 9 -16 6 -30 -11 l-19 -23 -5 33 c-3 18 -7 44 -9 58 -3
14 -5 -16 -6 -67 -1 -84 -3 -92 -22 -98 -24 -8 -75 34 -90 73 -5 12 -15 22
-24 22 -21 0 -19 -25 4 -36 31 -15 90 -92 103 -136 10 -34 8 -62 -9 -177 -32
-202 -92 -346 -129 -309 -8 7 -52 119 -100 248 -120 330 -145 447 -125 581 23
153 122 292 227 318 49 13 114 66 114 94 0 36 -22 69 -55 82 -39 17 -46 17
-94 3z"/>
<path d="M1585 4179 c-47 -69 -49 -75 -55 -160 l-6 -88 -77 -116 c-79 -118
-137 -189 -168 -206 -22 -11 -65 4 -96 33 -19 18 -23 32 -23 82 0 77 -17 113
-124 274 -89 135 -126 179 -126 149 0 -22 -6 -21 -37 3 -15 11 -28 18 -30 16
-9 -9 13 -35 68 -79 73 -59 111 -109 151 -194 44 -93 49 -172 16 -239 -20 -41
-23 -55 -15 -89 5 -22 6 -83 2 -137 l-6 -96 55 -34 c57 -34 90 -76 81 -101 -3
-7 -24 -24 -45 -36 -43 -24 -48 -37 -25 -67 23 -31 18 -61 -16 -85 l-31 -22
26 -14 c22 -12 25 -17 15 -34 -5 -11 -17 -23 -25 -26 -9 -3 -14 -17 -12 -39 2
-40 -22 -70 -63 -79 -34 -8 -33 -4 -14 -75 35 -132 13 -243 -92 -447 -78 -151
-108 -223 -94 -223 17 0 107 97 161 173 30 42 90 142 132 222 87 165 90 168
201 285 80 83 82 86 79 130 -2 26 -10 48 -18 53 -7 4 -18 16 -24 27 -8 16 -6
22 15 33 l26 13 -31 22 c-33 25 -39 57 -15 88 23 30 18 42 -24 64 -72 36 -64
78 25 135 30 19 57 42 60 50 4 8 2 45 -3 81 -6 40 -6 86 -1 113 5 25 11 61 13
80 9 68 43 104 238 256 43 33 103 70 135 83 54 21 78 41 104 87 6 11 -7 2 -29
-21 -27 -28 -54 -45 -86 -53 -27 -6 -88 -39 -143 -77 -53 -36 -98 -63 -101
-60 -3 3 4 29 17 58 14 32 22 69 20 93 -6 102 -3 114 32 186 20 41 35 75 34
76 -1 2 -24 -29 -51 -68z"/>
<path d="M5054 4006 c-3 -9 -3 -23 0 -32 3 -8 1 -25 -6 -37 -8 -15 -1 -12 21
11 18 17 31 40 29 49 -4 23 -36 29 -44 9z"/>
<path d="M580 3991 c5 -11 15 -23 21 -27 27 -16 69 -100 69 -136 0 -21 -3 -38
-6 -38 -14 0 -74 49 -148 119 -60 58 -75 68 -60 43 31 -55 112 -140 168 -177
50 -33 92 -91 111 -153 6 -21 5 -21 -22 -11 -51 20 -348 108 -351 104 -7 -7
38 -26 180 -76 242 -85 246 -87 289 -142 46 -58 55 -87 43 -136 -12 -47 -41
-57 -117 -41 -59 12 -112 43 -241 144 -51 41 -84 58 -132 70 -93 23 -109 19
-30 -8 61 -21 78 -33 150 -106 l81 -83 -115 7 c-75 4 -156 16 -234 36 -66 16
-122 28 -124 26 -5 -6 132 -49 235 -75 94 -24 225 -48 311 -57 50 -5 67 -12
82 -31 27 -34 39 -84 33 -133 -6 -40 -6 -40 -112 -90 -220 -105 -230 -110
-189 -104 44 7 88 -2 88 -18 0 -29 -88 -96 -170 -128 -47 -18 -96 -40 -109
-49 -45 -28 -4 -22 90 14 150 58 151 58 99 -27 -32 -52 -35 -58 -21 -58 4 0
37 39 72 86 71 96 171 193 225 219 20 9 49 15 65 13 l29 -4 60 190 c34 105 78
243 99 307 l38 115 -51 -13 c-104 -27 -192 20 -250 133 -8 18 -23 67 -32 110
-19 96 -32 120 -83 167 -46 42 -57 46 -41 18z"/>
<path d="M5017 3886 c-12 -17 -22 -22 -41 -19 -19 4 -26 1 -26 -11 0 -10 9
-16 24 -16 13 0 27 -6 29 -12 3 -7 6 -3 6 10 1 12 8 34 17 47 9 14 14 25 11
25 -2 0 -12 -11 -20 -24z"/>
<path d="M5471 3866 c-15 -18 -3 -46 19 -46 10 0 21 7 24 16 6 16 -9 44 -24
44 -4 0 -13 -6 -19 -14z"/>
<path d="M2054 3818 c-22 -24 -70 -84 -107 -133 -73 -100 -108 -128 -244 -198
-104 -53 -139 -58 -199 -23 l-41 23 105 -331 c96 -306 132 -399 132 -338 0 29
32 29 90 0 33 -17 60 -43 98 -98 56 -79 112 -146 112 -135 0 3 -13 25 -29 48
-34 50 -71 122 -71 138 0 18 45 3 150 -48 132 -65 136 -67 120 -48 -12 14
-221 119 -290 145 -54 20 -197 117 -220 149 -35 50 -24 102 29 140 29 21 237
71 295 71 19 0 77 -21 137 -51 120 -58 119 -56 -16 33 -118 78 -170 90 -272
64 -33 -9 -82 -16 -108 -16 -38 0 -52 5 -77 30 -24 25 -29 36 -23 58 13 53 38
93 84 133 56 50 107 76 281 146 128 51 194 87 222 121 7 8 -6 3 -29 -13 -39
-25 -242 -99 -250 -91 -5 4 62 122 91 161 12 17 35 47 50 68 37 49 30 47 -20
-5z"/>
<path d="M5535 3706 c-8 -13 -33 -31 -55 -41 -22 -10 -38 -20 -36 -22 2 -3 22
5 45 16 22 12 51 21 65 21 30 0 42 16 26 35 -17 21 -27 19 -45 -9z"/>
<path d="M5370 3615 c-14 -8 -20 -14 -15 -14 6 0 21 6 35 14 14 8 21 14 15 14
-5 0 -21 -6 -35 -14z"/>
<path d="M405 2900 c-3 -6 1 -7 9 -4 18 7 21 14 7 14 -6 0 -13 -4 -16 -10z"/>
<path d="M4332 2528 c2 -15 10 -23 23 -23 13 0 21 8 23 23 3 18 -1 22 -23 22
-22 0 -26 -4 -23 -22z"/>
<path d="M3728 2443 c6 -2 18 -2 25 0 6 3 1 5 -13 5 -14 0 -19 -2 -12 -5z"/>
<path d="M3765 2380 c-3 -5 1 -10 9 -10 8 0 18 5 21 10 3 6 -1 10 -9 10 -8 0
-18 -4 -21 -10z"/>
</g>
</svg>
