<?xml version="1.0" standalone="no"?>
<!DOCTYPE svg PUBLIC "-//W3C//DTD SVG 20010904//EN"
 "http://www.w3.org/TR/2001/REC-SVG-20010904/DTD/svg10.dtd">
<svg version="1.0" xmlns="http://www.w3.org/2000/svg"
 width="406.000000pt" height="331.000000pt" viewBox="0 0 406.000000 331.000000"
 preserveAspectRatio="xMidYMid meet">

<g transform="translate(0.000000,331.000000) scale(0.100000,-0.100000)"
fill="#000000" stroke="none">
<path d="M5 3302 c-8 -8 -6 -242 2 -241 26 4 41 -4 52 -28 9 -20 9 -28 0 -33
-7 -5 -8 -10 -1 -14 6 -3 13 -2 17 4 12 20 26 10 15 -11 -7 -11 -18 -18 -25
-15 -8 3 -17 1 -20 -4 -4 -6 3 -10 14 -10 12 0 21 -4 21 -10 0 -10 -14 -14
-37 -11 -7 1 -13 -2 -13 -8 0 -5 14 -8 31 -6 26 4 29 2 24 -15 -6 -18 -2 -20
42 -19 26 1 39 3 28 6 -24 6 -48 26 -25 21 9 -1 15 2 15 7 0 6 -11 9 -25 7
-24 -2 -24 -2 -6 13 17 13 18 15 3 15 -26 0 -20 17 7 22 19 4 22 1 18 -15 -4
-16 0 -18 24 -16 16 2 35 7 42 13 9 6 11 4 6 -9 -6 -15 -4 -16 14 -6 12 7 22
8 22 3 0 -13 -39 -52 -52 -52 -9 0 -9 -3 0 -12 17 -17 15 -28 -4 -28 -8 0 -13
-4 -9 -9 8 -14 45 -9 45 6 0 14 34 35 43 26 3 -3 4 6 1 21 -2 14 0 26 6 26 5
0 10 -4 10 -10 0 -5 9 -10 20 -10 11 0 20 -4 20 -10 0 -5 -9 -10 -20 -10 -11
0 -20 -4 -20 -10 0 -5 5 -10 12 -10 9 0 9 -3 0 -12 -15 -15 -16 -32 -2 -23 6
3 10 -1 10 -10 0 -9 -4 -13 -10 -10 -6 4 -7 -1 -3 -11 5 -14 8 -12 20 10 13
26 33 35 33 16 0 -5 7 -7 15 -4 13 5 13 8 0 21 -8 8 -15 18 -15 23 0 5 -8 6
-17 3 -16 -6 -16 -5 -5 10 11 13 17 14 27 4 7 -7 11 -15 8 -19 -2 -5 7 -8 20
-8 13 0 36 -9 50 -20 32 -25 35 -25 60 3 15 16 18 17 14 5 -4 -10 -2 -18 3
-18 6 0 9 -10 9 -22 -1 -17 -2 -19 -6 -5 -7 26 -33 21 -33 -7 0 -18 9 -29 32
-40 34 -17 63 -22 38 -6 -11 7 -12 12 -3 21 9 9 17 9 35 -3 109 -69 133 -74
42 -10 -54 38 -58 40 -80 25 -29 -18 -30 -13 -6 15 22 25 46 32 47 13 0 -23
23 -24 30 -1 4 13 12 19 21 16 8 -3 14 -2 14 2 1 31 50 37 50 6 0 -16 18 -18
39 -5 10 7 18 5 26 -5 6 -8 22 -20 35 -27 20 -10 26 -21 28 -59 3 -45 3 -46
-28 -43 -31 2 -55 15 -29 15 11 0 11 2 -1 10 -22 14 -30 12 -24 -7 4 -13 3
-14 -3 -5 -12 16 -35 7 -74 -29 -31 -29 -38 -30 -88 -11 -9 3 -12 1 -7 -6 5
-8 -1 -12 -18 -12 -28 0 -34 18 -14 38 9 9 8 12 -4 12 -19 0 -35 -39 -21 -49
14 -9 24 -41 12 -41 -5 0 -2 -11 6 -24 15 -22 15 -25 0 -34 -15 -8 -15 -10 -1
-25 9 -9 13 -23 10 -34 -6 -16 -5 -15 9 2 20 26 32 14 20 -22 -7 -21 -16 -28
-35 -28 -29 -1 -58 -21 -58 -40 0 -8 9 -10 26 -7 21 4 25 1 22 -14 -4 -21 -39
-30 -66 -18 -9 4 -20 6 -25 6 -4 -1 -11 9 -16 22 -5 13 -19 26 -31 29 -15 4
-19 2 -12 -6 5 -7 12 -20 15 -29 5 -15 3 -16 -19 -6 -13 6 -23 16 -21 22 3 6
-3 20 -12 30 -15 18 -15 19 1 13 10 -4 18 -2 18 3 0 10 -68 25 -77 17 -3 -3 2
-14 11 -23 21 -20 16 -38 -11 -42 -13 -2 -22 4 -26 17 -3 14 -1 18 10 14 13
-5 13 -2 4 15 -13 24 -14 35 -3 28 4 -2 13 4 20 15 14 21 3 26 -17 7 -11 -11
-12 -9 -7 8 5 16 0 27 -17 41 -13 10 -22 23 -20 30 2 6 -5 18 -17 26 -18 12
-19 16 -5 27 8 7 15 17 15 22 0 6 -8 4 -17 -3 -9 -8 -14 -9 -10 -3 4 7 -5 11
-23 12 -34 1 -33 2 -19 -35 5 -15 7 -24 3 -20 -4 3 -12 0 -19 -9 -10 -14 -15
-14 -53 6 -47 25 -48 26 -25 52 15 17 15 18 0 18 -10 0 -17 -7 -17 -15 0 -8
-6 -15 -14 -15 -8 0 -13 8 -11 18 2 9 4 25 4 35 1 9 8 17 18 17 14 0 14 2 -2
20 -10 11 -23 20 -28 20 -6 0 -2 -7 9 -15 13 -11 14 -14 4 -13 -13 3 -15 -21
-18 -150 -3 -139 -1 -155 15 -168 17 -13 17 -13 1 -14 -17 0 -26 -20 -10 -20
5 0 14 -12 21 -27 7 -16 10 -25 6 -21 -4 4 -14 1 -21 -7 -17 -16 -18 -29 -3
-19 6 3 15 0 20 -7 7 -11 9 -10 9 4 0 26 16 21 40 -13 20 -28 20 -30 3 -31
-24 -2 -24 -2 -56 6 -25 7 -27 5 -27 -24 0 -22 4 -29 15 -25 8 3 41 -4 75 -15
33 -12 72 -21 86 -21 24 0 25 -2 13 -17 -12 -16 -11 -16 8 0 34 29 38 1 5 -33
-22 -22 -29 -36 -24 -52 5 -20 4 -21 -11 -10 -9 8 -22 10 -28 6 -8 -4 -9 -3
-5 4 4 7 1 12 -8 12 -10 0 -13 -6 -10 -15 4 -8 1 -15 -5 -15 -6 0 -11 6 -11
13 0 7 -11 13 -27 12 -24 0 -30 7 -48 55 -18 49 -20 52 -23 26 -2 -15 2 -42 9
-58 8 -20 9 -32 2 -36 -6 -4 -11 -66 -12 -149 -2 -115 0 -142 11 -138 7 2 22
-2 32 -10 16 -12 17 -18 7 -28 -10 -9 -14 -8 -22 6 -17 29 -27 19 -27 -28 1
-32 4 -42 13 -35 7 6 14 0 22 -21 6 -16 8 -27 5 -25 -4 2 -14 -1 -23 -8 -12
-8 -16 -28 -16 -79 0 -38 3 -64 6 -59 8 12 52 35 57 30 2 -3 -5 -22 -16 -42
-10 -21 -22 -58 -26 -82 -3 -25 -10 -47 -15 -50 -5 -3 -9 -21 -9 -41 0 -31 2
-34 15 -23 9 7 18 10 21 7 9 -9 -5 -27 -21 -27 -11 0 -14 -43 -15 -240 0 -148
3 -248 10 -260 7 -12 7 -21 0 -25 -5 -3 -10 -40 -10 -82 l0 -76 22 19 c22 19
22 18 3 -28 -6 -15 -1 -18 29 -18 42 0 51 14 36 55 -8 21 -14 25 -22 17 -18
-18 -31 -14 -24 6 6 16 5 16 -8 0 -20 -27 -23 -23 -22 32 1 49 18 70 24 30 3
-18 9 -21 39 -18 38 3 53 -12 35 -35 -7 -8 -7 -18 -2 -27 8 -12 10 -12 10 -1
0 9 8 11 26 7 26 -7 27 -6 21 29 -5 28 -3 36 7 32 8 -3 19 0 25 6 8 8 11 6 12
-9 0 -10 3 -13 6 -6 7 18 21 15 28 -8 3 -11 11 -20 16 -20 6 0 2 14 -8 30 -10
17 -23 28 -29 26 -12 -5 -34 12 -34 26 0 4 9 8 20 8 11 0 20 -5 20 -11 0 -6 7
-9 15 -5 9 3 19 -3 26 -16 11 -21 12 -21 25 -3 16 22 28 13 38 -26 5 -22 2
-28 -17 -34 -13 -4 -17 -8 -10 -12 18 -7 16 -23 -2 -23 -8 0 -15 -7 -15 -15 0
-9 -6 -18 -14 -21 -8 -3 -12 -12 -9 -20 3 -8 9 -12 13 -9 4 3 10 -2 14 -10 3
-8 12 -12 20 -9 8 3 19 -3 26 -15 13 -24 30 -28 30 -6 0 17 25 20 35 5 12 -20
23 -9 30 31 6 36 10 40 30 35 30 -8 38 3 20 30 -16 24 -6 73 15 75 13 2 46 2
65 0 21 -1 19 -21 -3 -21 -10 0 -23 -5 -30 -12 -17 -17 24 -71 49 -63 24 8 24
-3 2 -35 -23 -33 -27 -61 -8 -54 9 4 15 0 16 -7 2 -24 4 -33 18 -76 14 -41 15
-42 28 -23 11 16 12 28 5 49 -12 33 0 51 33 51 28 0 34 7 28 31 -5 19 -32 23
-44 6 -11 -15 -37 4 -32 24 6 22 16 24 44 9 25 -14 24 -2 -1 25 -13 14 -22 41
-26 80 -5 44 -12 63 -30 79 -17 14 -21 25 -15 35 11 18 31 5 31 -20 0 -10 3
-19 8 -19 4 0 16 -16 26 -35 11 -19 23 -35 27 -35 4 0 9 -8 12 -18 3 -15 5
-15 12 3 15 36 58 50 54 18 -3 -38 1 -55 14 -50 27 10 8 -93 -28 -153 -42 -70
-48 -91 -36 -123 13 -34 -30 -133 -65 -149 -20 -9 -53 -68 -37 -68 3 0 -9 -16
-27 -36 -17 -20 -29 -42 -26 -49 3 -8 0 -16 -7 -19 -7 -2 111 -5 261 -5 161
-1 272 3 272 8 0 5 6 16 13 23 7 7 21 24 30 38 l17 24 0 -47 0 -47 1002 0
c874 0 999 2 982 15 -10 8 -27 15 -37 15 -15 0 -16 3 -7 20 6 11 8 25 5 30 -3
5 -1 11 4 14 5 4 12 2 16 -4 3 -5 11 -10 17 -10 19 0 -12 28 -42 38 -21 8 -30
7 -33 -1 -6 -19 -37 12 -37 37 1 20 1 20 12 1 10 -17 12 -16 25 19 9 28 10 43
2 52 -6 7 -8 17 -5 23 3 5 -1 11 -9 15 -8 3 -15 10 -15 17 0 6 7 8 16 5 14 -5
15 -4 4 9 -10 13 -11 20 -1 39 7 13 11 32 9 42 -4 21 -51 49 -56 34 -2 -6 -11
-10 -19 -10 -10 0 -13 6 -9 16 3 9 6 20 6 25 0 12 47 11 55 -1 4 -6 14 -9 23
-8 13 2 17 -5 17 -29 0 -25 11 -43 48 -80 26 -27 47 -55 47 -63 0 -12 -2 -13
-9 -1 -7 10 -10 10 -16 1 -4 -7 -2 -16 5 -20 7 -4 9 -16 6 -27 -9 -28 43 -96
99 -128 53 -32 77 -65 45 -62 -11 1 -18 7 -16 13 7 19 -34 4 -45 -17 -9 -18 1
-19 316 -19 179 0 325 2 325 5 0 3 -4 13 -9 23 -5 9 -30 61 -56 114 -26 54
-56 105 -66 114 -11 10 -19 23 -19 30 0 30 -34 84 -53 84 -14 0 -17 4 -12 18
4 9 9 24 12 33 6 21 -45 62 -70 55 -14 -3 -17 0 -12 11 3 10 -4 27 -18 42 -40
44 -69 98 -52 98 8 0 16 -6 19 -14 3 -7 10 -13 15 -13 6 0 1 16 -11 35 -18 32
-19 37 -5 53 8 9 17 33 19 52 3 33 1 35 -30 37 -22 1 -35 -4 -42 -17 -13 -25
-13 -30 4 -30 20 0 28 -40 9 -47 -17 -7 -33 13 -33 40 0 10 -6 30 -14 45 -8
15 -17 44 -21 65 -4 22 -18 46 -35 60 -33 28 -49 67 -27 67 19 0 45 -30 49
-59 1 -14 9 -27 17 -29 10 -3 12 0 8 12 -6 15 -2 17 30 16 4 0 7 -15 5 -33 -2
-27 -1 -30 10 -17 7 9 21 14 31 12 15 -3 18 0 12 17 -5 18 -2 21 19 21 14 0
26 5 26 10 0 6 10 10 22 10 12 0 18 -3 15 -7 -4 -3 0 -15 10 -25 14 -16 14
-18 0 -18 -10 0 -13 -6 -10 -21 3 -12 11 -18 19 -15 9 4 14 -2 14 -17 0 -12 7
-33 16 -45 12 -18 18 -19 28 -9 10 8 11 18 5 30 -9 16 -5 21 14 18 4 0 7 6 7
14 0 8 -7 15 -16 15 -9 0 -18 9 -21 21 -3 11 -16 25 -29 30 -13 4 -24 15 -24
24 0 19 26 20 34 0 3 -8 10 -15 17 -15 7 0 8 7 4 17 -4 10 -9 24 -12 30 -10
25 14 12 26 -14 9 -20 15 -23 23 -15 18 18 28 15 28 -7 0 -28 17 -35 23 -9 5
17 9 19 21 9 19 -16 32 4 16 24 -9 11 -9 15 -1 15 20 0 61 -32 55 -42 -3 -5
-12 -4 -20 3 -11 9 -14 7 -14 -10 0 -11 -6 -20 -12 -18 -7 1 -12 -4 -11 -10 2
-7 -2 -13 -7 -13 -6 0 -10 -7 -10 -16 0 -11 6 -14 20 -9 24 8 25 -3 5 -32 -10
-15 -12 -24 -5 -28 6 -4 10 -16 8 -28 -2 -12 2 -21 8 -20 6 1 9 -10 6 -29 -3
-20 -1 -29 6 -24 5 3 13 -5 16 -19 6 -24 36 -36 36 -15 0 6 6 10 13 10 7 0 23
9 35 20 24 23 31 10 8 -13 -8 -7 -11 -18 -8 -24 12 -17 41 -23 49 -9 12 20 36
24 52 9 13 -13 12 -39 -4 -76 -5 -13 -3 -16 8 -11 14 5 16 29 16 154 1 140 -1
149 -19 155 -11 4 -20 11 -20 16 0 6 10 7 23 4 l22 -7 -21 20 c-11 11 -31 23
-45 27 l-24 8 20 -23 20 -22 -44 3 c-29 2 -46 -1 -49 -9 -2 -6 -10 -12 -19
-12 -9 0 -12 6 -8 19 3 10 -1 24 -10 31 -11 9 -14 22 -10 37 3 14 1 23 -6 23
-6 0 -9 7 -6 15 4 8 2 17 -3 20 -6 4 -10 15 -10 26 0 10 -7 19 -15 19 -8 0
-15 4 -15 9 0 5 -3 16 -6 25 -4 11 -1 16 10 16 22 0 20 13 -4 28 -24 14 -26
32 -5 32 8 0 15 5 15 10 0 6 4 10 10 10 10 0 80 -104 80 -120 0 -5 26 -35 57
-67 44 -45 58 -54 61 -40 2 9 8 17 13 17 5 0 9 12 9 26 0 31 -23 28 -28 -4 -2
-12 -7 -22 -12 -22 -24 0 -149 175 -135 189 4 3 9 1 13 -5 10 -16 42 -13 42 4
0 11 3 12 13 3 8 -6 17 -7 22 -3 4 4 4 -7 1 -25 -9 -38 5 -49 29 -23 18 20 41
28 31 11 -3 -5 1 -14 9 -21 13 -11 15 -5 15 45 0 54 -2 59 -46 102 -37 36 -44
47 -33 55 11 8 10 9 -4 4 -11 -3 -24 -3 -30 1 -14 9 -56 11 -55 3 2 -21 -5
-30 -22 -30 -14 0 -20 -7 -20 -21 0 -30 -17 -14 -46 44 -15 29 -36 65 -47 81
-21 30 -33 106 -17 106 5 0 10 6 13 13 2 6 2 0 0 -15 -2 -14 1 -30 8 -34 9 -5
10 -2 6 9 -3 9 -1 20 6 24 16 10 19 46 5 54 -16 10 -1 40 16 33 8 -3 13 -11
10 -19 -6 -14 33 -28 42 -14 3 5 15 0 26 -11 38 -35 63 -21 66 38 2 34 -21 88
-47 108 -8 6 -11 17 -9 25 3 8 -1 22 -10 32 -10 11 -11 17 -4 17 7 0 12 5 12
10 0 6 -12 10 -27 10 -31 0 -60 15 -46 23 5 3 15 2 23 -4 32 -20 38 -10 31 54
-1 4 -8 7 -16 7 -8 0 -15 3 -15 8 1 12 38 52 48 52 12 0 26 -36 19 -48 -3 -4
1 -16 9 -26 12 -18 14 -18 20 -2 4 10 13 15 22 11 8 -3 19 0 23 6 10 17 56 20
62 5 3 -7 1 -19 -4 -27 -12 -20 -11 -29 4 -26 7 1 12 -10 12 -31 1 -31 -1 -32
-30 -26 -24 5 -28 4 -17 -7 6 -7 12 -16 12 -20 0 -7 -68 -24 -83 -21 -4 1 -7
-7 -7 -18 0 -11 4 -20 9 -20 5 0 12 -16 15 -35 4 -19 13 -40 20 -47 19 -20 28
-65 13 -72 -9 -5 -9 -7 0 -12 8 -3 10 -16 6 -35 -4 -22 -2 -29 7 -27 7 2 16
-8 20 -22 6 -25 6 -25 18 -4 6 12 11 48 10 80 -2 38 2 59 10 62 7 2 12 16 12
32 0 20 -6 29 -21 33 -18 5 -19 8 -8 20 8 8 17 13 21 11 4 -3 6 60 5 138 l-2
143 -40 14 c-22 7 -46 18 -52 23 -18 14 -16 53 3 72 8 9 12 20 9 26 -3 5 -2
17 3 27 9 14 10 14 16 -5 4 -12 12 -22 18 -22 6 0 20 -7 30 -17 20 -18 25 -4
6 15 -10 10 -10 14 0 21 10 6 12 45 11 158 -2 135 -5 152 -21 162 -10 6 -24 9
-30 5 -5 -4 -14 0 -19 7 -14 23 -11 29 16 29 33 0 32 18 -2 22 -14 2 -28 9
-31 16 -2 7 2 10 12 6 24 -9 19 10 -5 21 -47 22 1 38 58 20 22 -7 23 -3 14 58
0 4 -8 7 -17 7 -9 0 -14 6 -11 13 2 6 10 11 16 10 18 -5 13 6 -15 32 -15 14
-21 25 -15 25 7 0 10 4 6 10 -3 5 -11 7 -19 4 -7 -3 -18 7 -24 21 -16 35 -15
51 3 53 8 1 22 3 30 4 11 1 13 14 11 53 -1 28 -6 57 -10 63 -4 7 -3 12 3 12 5
0 13 -5 16 -10 3 -6 11 -10 16 -10 5 0 0 10 -11 22 -12 13 -16 24 -10 26 5 2
10 13 10 25 0 16 -3 18 -9 9 -6 -10 -10 -7 -13 12 -3 15 -1 29 3 32 5 3 9 -2
9 -10 0 -9 5 -16 10 -16 7 0 7 6 0 20 -11 21 -30 27 -30 10 0 -15 -26 -12 -40
5 -15 18 -10 25 18 28 22 1 19 27 -4 27 -15 0 -17 10 -8 34 4 12 13 14 32 9
26 -6 26 -6 11 18 -11 16 -26 24 -45 24 -16 0 -39 6 -51 13 -33 18 -28 0 5
-20 15 -10 21 -18 15 -18 -7 0 -13 -7 -13 -16 0 -12 -3 -14 -13 -6 -8 7 -18 7
-27 2 -12 -8 -12 -10 -1 -10 20 0 63 -50 57 -66 -3 -8 -2 -14 3 -14 10 0 9
-86 -1 -96 -14 -13 -20 26 -7 42 11 14 10 18 -6 30 -13 10 -21 11 -26 3 -4 -8
-9 -8 -13 -1 -3 6 3 13 14 17 11 3 20 11 20 17 0 6 -3 8 -7 5 -3 -4 -12 -2
-19 4 -15 12 -34 4 -34 -14 1 -7 10 -23 20 -36 18 -20 22 -22 37 -10 13 11 13
8 -2 -13 -21 -28 -35 -36 -35 -18 0 6 -4 10 -10 10 -5 0 -7 -6 -4 -14 3 -7 -2
-16 -11 -20 -20 -7 -35 0 -34 17 0 9 2 9 6 0 2 -7 9 -13 14 -13 6 0 7 5 4 10
-4 6 -2 16 4 23 7 9 4 16 -11 26 -11 7 -17 8 -13 2 3 -6 2 -11 -4 -11 -6 0
-17 14 -26 30 -9 17 -23 30 -33 30 -13 0 -14 -2 -4 -9 11 -7 11 -9 0 -13 -45
-17 -52 38 -8 70 35 26 46 27 68 5 16 -16 17 -15 21 3 2 10 8 22 13 25 6 4 7
12 3 19 -6 9 -9 9 -15 0 -5 -9 -13 -5 -29 11 -11 12 -21 26 -21 31 0 13 18 9
22 -4 3 -7 7 -5 11 6 4 9 3 15 -2 11 -5 -3 -12 -1 -15 4 -4 5 -2 12 3 16 14 8
1 37 -15 31 -7 -3 -18 2 -24 10 -7 8 -17 14 -23 14 -6 0 -4 -6 4 -12 8 -7 12
-12 10 -11 -11 7 -39 -19 -35 -32 8 -20 -24 -31 -47 -17 -10 7 -24 12 -31 11
-7 0 -3 -4 9 -9 13 -5 23 -16 23 -24 0 -12 -5 -12 -30 -3 -17 6 -30 18 -30 27
0 13 -2 13 -10 0 -5 -9 -5 -19 2 -27 7 -9 7 -13 -1 -13 -17 0 -13 -31 7 -46
14 -11 14 -13 2 -13 -18 0 -47 20 -48 34 -2 12 -81 24 -88 13 -7 -11 -44 -10
-44 1 0 5 6 12 13 14 6 3 0 6 -15 6 -16 1 -28 6 -28 12 0 6 -9 9 -20 6 -11 -3
-18 -2 -15 3 3 4 -3 14 -12 21 -14 12 -16 12 -11 -1 3 -9 -10 -21 -36 -34 -23
-11 -48 -25 -57 -33 -14 -12 -17 -11 -22 6 -3 12 0 18 7 15 14 -5 44 16 31 22
-5 2 -17 9 -25 14 -13 9 -13 11 0 20 11 7 6 10 -22 10 -29 0 -36 -3 -32 -15 4
-8 2 -15 -4 -15 -5 0 -12 9 -15 20 -3 11 -1 20 4 20 21 0 7 31 -21 45 -16 9
-30 21 -30 28 0 8 -3 7 -9 -2 -8 -12 -12 -13 -25 -1 -19 15 -31 8 -23 -13 3
-9 16 -13 31 -12 14 2 24 -1 20 -6 -3 -5 -17 -7 -30 -5 -16 3 -24 1 -22 -6 2
-6 12 -12 22 -14 37 -5 23 -10 -29 -10 -30 1 -51 5 -47 10 3 5 -2 7 -11 3 -11
-4 -14 -2 -10 9 7 19 22 18 30 -2 6 -15 7 -15 19 1 9 13 10 23 3 37 -9 16 -20
18 -89 16 -43 -1 -77 -5 -74 -9 2 -4 -10 -2 -26 4 -24 9 -33 9 -38 0 -12 -18
-72 -26 -90 -11 -10 9 -48 13 -113 13 l-98 0 25 -20 c33 -27 41 -71 14 -78
-13 -3 -18 -11 -14 -20 3 -10 -2 -18 -16 -22 -16 -5 -18 -10 -10 -20 8 -9 6
-14 -6 -19 -22 -8 -24 -8 -22 6 2 7 -10 14 -26 17 -24 5 -29 12 -32 39 l-4 33
22 -21 22 -20 19 41 c10 22 16 43 13 46 -3 3 -10 -6 -15 -20 -5 -14 -14 -28
-20 -32 -6 -3 -9 0 -5 8 3 8 -2 20 -10 27 -20 16 -12 30 14 23 13 -4 20 0 20
9 0 11 -11 14 -41 11 -27 -2 -38 1 -34 8 5 7 -16 10 -68 7 -42 -2 -75 -7 -74
-13 1 -5 -9 -11 -23 -13 -24 -2 -24 -2 -6 13 18 14 1 15 -177 14 -108 0 -199
-5 -203 -10 -3 -5 -12 -9 -20 -9 -8 0 -12 5 -9 10 4 6 -13 10 -45 10 -47 0
-50 -1 -36 -16 21 -20 20 -23 -4 -17 -11 3 -20 10 -20 17 0 7 -22 11 -59 12
-48 1 -58 -2 -57 -15 1 -10 -7 -16 -19 -16 -11 0 -19 6 -17 13 2 9 -4 12 -17
7 -11 -3 -22 -2 -25 3 -3 5 -27 9 -53 10 -41 1 -46 0 -31 -11 15 -12 14 -15
-12 -30 -39 -23 -43 -21 -25 12 l15 30 -178 -1 c-121 0 -179 -4 -184 -12 -6
-8 -8 -7 -8 2 0 9 -7 8 -26 -5 -24 -16 -27 -16 -36 0 -12 22 -94 23 -134 2
-26 -13 -29 -13 -32 0 -4 19 -88 21 -96 3 -5 -10 -7 -10 -12 0 -4 9 -48 12
-174 11 l-169 0 6 -31 c4 -22 3 -29 -5 -24 -7 4 -12 14 -12 23 0 10 -6 13 -16
9 -14 -5 -15 -4 -4 9 8 9 8 15 2 15 -6 0 -14 -5 -18 -11 -4 -8 -9 -7 -15 2 -7
12 -12 12 -31 0 -16 -10 -23 -10 -26 -2 -2 6 -27 11 -62 11 -46 0 -59 -4 -65
-17 -3 -10 -6 -19 -5 -21 2 -6 -48 -42 -60 -42 -7 0 -9 8 -5 21 5 13 3 19 -3
15 -5 -3 -13 1 -16 9 -4 10 2 19 17 25 18 7 16 8 -15 8 -21 -1 -40 -4 -43 -6z
m175 -12 c0 -5 -7 -10 -15 -10 -8 0 -15 5 -15 10 0 6 7 10 15 10 8 0 15 -4 15
-10z m310 -5 c-7 -9 -15 -13 -19 -10 -3 3 1 10 9 15 21 14 24 12 10 -5z m2200
-6 c0 -5 -7 -9 -15 -9 -15 0 -20 12 -9 23 8 8 24 -1 24 -14z m287 4 c3 -9 -6
-12 -28 -10 -43 3 -51 26 -8 24 18 -1 34 -8 36 -14z m-2552 -3 c3 -5 1 -10 -4
-10 -6 0 -11 5 -11 10 0 6 2 10 4 10 3 0 8 -4 11 -10z m68 -15 c19 5 20 4 7
-7 -9 -7 -14 -21 -12 -32 2 -11 0 -16 -7 -12 -6 4 -11 15 -11 24 0 12 -3 13
-12 4 -7 -7 -17 -12 -22 -12 -6 0 -2 8 9 16 14 11 16 18 7 21 -6 3 -9 9 -6 15
4 7 10 4 16 -6 6 -11 17 -15 31 -11z m2107 10 c0 -9 -6 -12 -15 -9 -8 4 -15
10 -15 15 0 5 7 9 15 9 8 0 15 -7 15 -15z m-310 -5 c0 -5 -5 -10 -11 -10 -5 0
-7 5 -4 10 3 6 8 10 11 10 2 0 4 -4 4 -10z m-2100 -14 c0 -2 -7 -6 -15 -10 -8
-3 -15 -1 -15 4 0 6 7 10 15 10 8 0 15 -2 15 -4z m450 -6 c0 -5 -4 -10 -10
-10 -5 0 -10 5 -10 10 0 6 5 10 10 10 6 0 10 -4 10 -10z m404 -11 c-8 -13 -21
-11 -27 5 -4 10 0 12 14 9 10 -3 16 -9 13 -14z m1301 11 c3 -5 1 -10 -4 -10
-6 0 -11 5 -11 10 0 6 2 10 4 10 3 0 8 -4 11 -10z m615 6 c0 -3 -4 -8 -10 -11
-5 -3 -10 -1 -10 4 0 6 5 11 10 11 6 0 10 -2 10 -4z m-2820 -10 c0 -3 -4 -8
-10 -11 -5 -3 -10 -1 -10 4 0 6 5 11 10 11 6 0 10 -2 10 -4z m109 -23 c9 2 23
-3 30 -11 12 -12 12 -15 0 -23 -20 -12 -23 -11 -39 11 -8 11 -22 20 -32 20
-18 0 -24 11 -12 23 4 3 13 -1 22 -9 8 -9 22 -14 31 -11z m1426 17 c3 -6 -1
-7 -9 -4 -18 7 -21 14 -7 14 6 0 13 -4 16 -10z m275 0 c0 -5 -2 -10 -4 -10 -3
0 -8 5 -11 10 -3 6 -1 10 4 10 6 0 11 -4 11 -10z m-1400 -26 c0 -23 -1 -24
-16 -10 -8 9 -12 20 -9 26 12 19 25 10 25 -16z m360 12 c0 -18 -17 -29 -30
-21 -8 5 -7 11 1 21 15 18 29 18 29 0z m620 -7 c0 -11 -27 -12 -34 0 -3 4 -3
11 0 14 8 8 34 -3 34 -14z m491 14 c-11 -5 -11 -7 0 -14 8 -5 9 -9 3 -9 -6 0
-17 7 -24 15 -10 13 -9 15 11 14 13 0 18 -3 10 -6z m229 -3 c0 -5 7 -10 16
-10 8 0 12 -4 9 -10 -4 -6 -13 -5 -25 3 -21 13 -26 27 -10 27 6 0 10 -4 10
-10z m453 -18 c22 -19 22 -28 -2 -35 -12 -3 -23 4 -34 23 -26 42 -7 49 36 12z
m197 18 c0 -5 -4 -10 -10 -10 -5 0 -10 5 -10 10 0 6 5 10 10 10 6 0 10 -4 10
-10z m-524 -34 c0 -20 -4 -32 -10 -29 -5 4 -7 -1 -3 -10 5 -12 1 -17 -13 -17
-11 0 -20 2 -20 4 0 2 -3 12 -7 22 -5 13 -3 16 10 11 9 -3 19 -2 22 3 4 6 2
10 -3 10 -5 0 -12 9 -15 20 -4 16 0 20 17 20 18 0 22 -6 22 -34z m707 28 c8
-8 -3 -34 -14 -34 -5 0 -9 9 -9 20 0 19 11 26 23 14z m667 -14 c0 -5 -2 -10
-4 -10 -3 0 -8 5 -11 10 -3 6 -1 10 4 10 6 0 11 -4 11 -10z m-3280 -10 c0 -5
-9 -10 -20 -10 -11 0 -20 5 -20 10 0 6 9 10 20 10 11 0 20 -4 20 -10z m510
-10 c0 -5 -7 -10 -15 -10 -8 0 -15 5 -15 10 0 6 7 10 15 10 8 0 15 -4 15 -10z
m527 4 c-3 -3 -12 -4 -19 -1 -8 3 -5 6 6 6 11 1 17 -2 13 -5z m1137 -15 c21
-16 24 -24 15 -30 -7 -4 -17 -5 -23 -2 -5 3 -6 1 -2 -5 10 -17 -2 -32 -20 -25
-9 3 -11 9 -5 17 4 6 5 20 0 31 -17 42 -6 46 35 14z m-2279 0 c10 -15 2 -19
-23 -12 -12 3 -19 9 -16 14 7 12 31 11 39 -2z m170 1 c3 -5 1 -10 -4 -10 -6 0
-11 5 -11 10 0 6 2 10 4 10 3 0 8 -4 11 -10z m395 0 c0 -5 -5 -10 -11 -10 -5
0 -7 5 -4 10 3 6 8 10 11 10 2 0 4 -4 4 -10z m114 -23 c-3 -9 -15 -17 -25 -17
-10 0 -19 -5 -19 -12 0 -6 -3 -8 -7 -5 -3 4 3 16 15 27 12 12 22 26 22 32 0 8
3 9 10 2 6 -6 8 -18 4 -27z m814 13 c-14 -23 -24 -25 -34 -9 -7 12 12 29 34
29 10 0 10 -4 0 -20z m42 10 c0 -5 -4 -10 -10 -10 -5 0 -10 5 -10 10 0 6 5 10
10 10 6 0 10 -4 10 -10z m85 0 c3 -5 1 -10 -4 -10 -6 0 -11 5 -11 10 0 6 2 10
4 10 3 0 8 -4 11 -10z m175 -10 c12 -8 13 -12 2 -19 -11 -6 -10 -10 4 -15 13
-5 15 -9 6 -18 -10 -10 -18 -6 -38 14 -36 35 -15 65 26 38z m700 -1 c0 -5 -7
-9 -15 -9 -8 0 -18 0 -22 -1 -4 0 -9 4 -11 9 -1 5 9 10 23 10 14 0 25 -4 25
-9z m280 -1 c0 -5 -13 -8 -30 -8 -32 0 -40 -14 -14 -24 9 -4 14 -9 10 -13 -3
-3 -15 2 -25 11 -16 14 -17 21 -8 31 12 14 67 16 67 3z m-1715 -7 c-3 -5 2
-11 11 -13 10 -2 18 -15 20 -33 2 -22 1 -26 -6 -15 -8 12 -10 9 -10 -12 0 -16
-11 -38 -25 -53 -16 -15 -21 -25 -13 -26 10 0 10 -2 1 -6 -7 -2 -13 -9 -13
-14 0 -6 4 -8 9 -5 5 4 20 2 33 -3 12 -6 17 -10 9 -10 -8 -1 -11 -7 -7 -17 3
-8 2 -12 -4 -9 -6 3 -10 14 -10 23 0 12 -3 13 -11 5 -6 -6 -18 -9 -25 -6 -16
6 -19 33 -5 33 10 0 7 38 -3 48 -3 2 -1 13 5 23 7 13 6 19 -1 19 -6 0 -8 5 -5
10 3 6 17 10 31 10 27 0 31 12 9 33 -14 14 -11 27 7 27 5 0 7 -4 3 -9z m1945
-1 c10 -6 11 -10 3 -10 -16 0 -17 -22 -1 -38 6 -6 13 -22 14 -34 2 -18 0 -16
-11 8 -17 39 -46 65 -52 46 -3 -6 -9 -10 -13 -7 -11 7 20 45 35 45 5 0 17 -5
25 -10z m348 -9 c3 -8 -1 -12 -9 -9 -7 2 -15 10 -17 17 -3 8 1 12 9 9 7 -2 15
-10 17 -17z m-1459 -10 c11 -20 3 -32 -31 -44 -24 -9 -30 4 -11 25 9 10 13 18
9 18 -4 0 -4 5 -1 10 10 15 23 12 34 -9z m766 9 c3 -5 1 -10 -4 -10 -6 0 -11
5 -11 10 0 6 2 10 4 10 3 0 8 -4 11 -10z m665 -32 c0 -6 -8 -4 -18 5 -10 10
-24 17 -30 17 -7 0 -12 5 -12 10 0 6 13 4 30 -5 17 -9 30 -21 30 -27z m-3250
22 c0 -5 -7 -10 -15 -10 -8 0 -15 5 -15 10 0 6 7 10 15 10 8 0 15 -4 15 -10z
m1360 0 c0 -5 -2 -10 -4 -10 -3 0 -8 5 -11 10 -3 6 -1 10 4 10 6 0 11 -4 11
-10z m1018 -2 c8 -8 12 -8 12 -1 0 6 11 8 25 5 38 -7 30 -18 -14 -19 -25 0
-42 4 -45 13 -7 17 6 18 22 2z m392 2 c0 -5 -4 -10 -9 -10 -6 0 -13 5 -16 10
-3 6 1 10 9 10 9 0 16 -4 16 -10z m-781 -22 c-10 -18 -21 -23 -32 -12 -11 11
5 33 23 31 15 -1 16 -5 9 -19z m1000 8 c17 -20 -3 -30 -29 -14 -11 7 -20 16
-20 20 0 14 37 9 49 -6z m-2919 -22 c0 -2 -9 0 -20 6 -11 6 -20 13 -20 16 0 2
9 0 20 -6 11 -6 20 -13 20 -16z m648 3 c5 -25 -18 -53 -29 -35 -5 7 -6 21 -3
32 4 13 3 16 -6 11 -9 -5 -11 -4 -6 4 11 17 40 9 44 -12z m1212 14 c0 -5 3
-17 7 -27 6 -16 4 -16 -20 2 -32 23 -34 34 -7 34 11 0 20 -4 20 -9z m335 -1
c3 -5 1 -10 -4 -10 -6 0 -11 5 -11 10 0 6 2 10 4 10 3 0 8 -4 11 -10z m825 0
c0 -5 -4 -10 -9 -10 -6 0 -13 5 -16 10 -3 6 1 10 9 10 9 0 16 -4 16 -10z m235
-11 c5 -6 2 -9 -9 -9 -9 0 -14 -4 -11 -10 11 -18 -1 -10 -26 16 l-24 27 30 -7
c17 -4 34 -12 40 -17z m-2265 1 c0 -5 -5 -10 -11 -10 -5 0 -7 5 -4 10 3 6 8
10 11 10 2 0 4 -4 4 -10z m1058 -30 c0 -17 -4 -30 -9 -30 -5 0 -9 -6 -9 -13 0
-17 34 -49 43 -41 9 9 47 -6 47 -19 0 -7 -4 -19 -9 -26 -8 -12 -13 -11 -31 10
-15 17 -20 19 -16 7 8 -28 -21 -22 -63 11 -26 21 -41 27 -52 20 -12 -7 -12 -9
1 -10 8 -1 18 -1 21 -1 4 1 17 -10 29 -23 26 -28 20 -46 -7 -24 -11 9 -14 10
-9 2 22 -37 -23 -30 -82 13 -6 4 -10 74 -5 74 3 0 12 -8 19 -17 12 -16 13 -16
8 -1 -6 19 23 32 52 22 11 -3 15 -2 9 3 -18 14 -16 51 3 49 9 0 21 -5 25 -11
5 -6 6 -2 3 8 -8 24 1 38 18 31 7 -3 13 -18 14 -34z m937 30 c3 -5 1 -10 -4
-10 -6 0 -11 5 -11 10 0 6 2 10 4 10 3 0 8 -4 11 -10z m-3230 -10 c17 -7 18
-9 4 -14 -23 -10 -72 -2 -77 12 -4 14 42 15 73 2z m1425 -9 c0 -10 6 -24 14
-30 7 -6 11 -22 9 -35 -5 -24 -3 -25 48 -23 30 1 61 6 69 11 12 7 13 6 3 -5
-15 -15 -18 -33 -5 -25 5 3 9 -1 9 -9 0 -9 -4 -11 -11 -6 -20 15 -77 21 -98
10 -16 -8 -23 -8 -29 2 -6 10 -9 5 -9 -15 0 -19 -4 -27 -13 -23 -7 3 -19 -4
-25 -14 -7 -10 -20 -19 -29 -19 -14 0 -14 3 4 23 11 12 23 31 28 42 13 36 16
98 4 106 -14 9 -3 29 17 29 8 0 14 -8 14 -19z m1123 -3 c6 -21 2 -36 -7 -27
-10 11 -16 49 -8 49 5 0 12 -10 15 -22z m67 18 c0 -3 -4 -8 -10 -11 -5 -3 -10
-1 -10 4 0 6 5 11 10 11 6 0 10 -2 10 -4z m163 -20 c22 -15 34 -19 30 -10 -3
9 2 14 16 14 12 0 20 -3 20 -7 -4 -25 3 -42 19 -46 15 -4 15 -5 0 -6 -9 0 -20
4 -23 9 -3 6 -11 10 -16 10 -6 0 -7 -5 -4 -10 13 -22 -28 -23 -46 -2 -20 25
-25 26 -43 10 -18 -17 -9 -43 20 -59 18 -9 21 -15 12 -21 -10 -6 -10 -8 0 -8
26 0 10 -17 -17 -18 -17 0 -39 -6 -51 -12 -12 -6 -29 -8 -38 -4 -9 4 -20 8
-24 8 -3 1 -9 4 -13 7 -3 4 10 6 29 4 21 -1 33 2 29 8 -3 5 4 18 17 27 l23 17
-32 5 c-23 3 -30 1 -27 -8 4 -9 -4 -9 -31 2 -35 15 -36 15 -30 -6 8 -32 -22
-38 -48 -9 -27 31 -45 34 -45 9 0 -11 -7 -20 -15 -20 -8 0 -15 7 -15 15 0 16
49 45 75 45 9 0 19 9 22 20 3 11 12 20 21 20 8 0 20 8 27 17 11 15 13 15 25
-7 10 -18 14 -20 21 -9 7 12 12 12 30 1 19 -12 21 -12 16 1 -5 14 9 37 24 37
3 0 22 -11 42 -24z m917 13 c0 -5 -4 -7 -10 -4 -5 3 -10 -3 -10 -15 0 -12 9
-24 23 -30 12 -5 15 -9 7 -9 -8 0 -23 6 -33 13 -15 12 -16 18 -7 35 11 22 30
28 30 10z m-1510 -9 c0 -5 -5 -10 -11 -10 -7 0 -9 -9 -6 -21 5 -19 4 -19 -16
-6 -28 18 -32 34 -10 40 31 8 43 7 43 -3z m1112 -2 c-9 -9 -15 -9 -24 0 -9 9
-7 12 12 12 19 0 21 -3 12 -12z m-3267 -17 c-3 -6 -11 -11 -17 -11 -6 0 -6 6
2 15 14 17 26 13 15 -4z m770 9 c3 -5 1 -10 -4 -10 -6 0 -11 5 -11 10 0 6 2
10 4 10 3 0 8 -4 11 -10z m1600 -12 c23 -15 32 -29 32 -50 0 -17 -6 -28 -14
-28 -7 0 -13 -7 -13 -15 0 -8 -4 -15 -10 -15 -5 0 -10 16 -10 35 0 19 -4 35
-8 35 -5 0 -17 6 -27 14 -16 12 -17 16 -6 30 17 20 19 20 56 -6z m-2421 -9
c-3 -5 -12 -9 -20 -9 -8 0 -14 -5 -14 -10 0 -7 7 -7 21 1 33 17 49 -5 23 -31
-20 -20 -21 -20 -38 -2 -23 26 -13 72 15 65 10 -3 16 -9 13 -14z m972 12 c-3
-5 6 -12 21 -16 15 -3 23 -9 17 -13 -5 -4 -10 -20 -12 -37 -3 -29 -3 -29 13
-10 16 20 16 19 11 -6 -4 -19 -1 -29 9 -33 8 -3 15 -1 15 5 0 6 5 7 10 4 6 -3
11 2 12 12 0 10 2 23 2 30 2 19 16 28 16 10 0 -9 5 -17 10 -17 6 0 10 5 10 10
0 6 5 10 10 10 17 0 11 -18 -8 -24 -9 -3 -23 -15 -30 -27 -12 -18 -12 -23 0
-30 9 -6 3 -9 -17 -9 -17 0 -37 6 -44 13 -11 10 -12 9 -6 -3 4 -8 -1 -6 -13 5
-51 49 -82 63 -82 38 0 -9 -3 -14 -6 -10 -8 7 3 37 21 61 14 18 15 18 34 -5
11 -13 20 -19 21 -13 0 5 -9 20 -20 31 -14 15 -16 23 -7 26 18 8 19 8 13 -2z
m-1133 -16 c-3 -9 -8 -14 -10 -11 -3 3 -2 9 2 15 9 16 15 13 8 -4z m3482 5 c3
-5 -1 -10 -10 -10 -9 0 -13 5 -10 10 3 6 8 10 10 10 2 0 7 -4 10 -10z m-2429
-27 c-7 -7 -26 7 -26 19 0 6 6 6 15 -2 9 -7 13 -15 11 -17z m337 6 c-6 -6 -17
-8 -24 -3 -9 5 -8 9 7 14 23 9 31 3 17 -11z m1866 -28 c1 -10 -6 -7 -20 8 -18
19 -19 25 -8 32 14 8 27 -10 28 -40z m331 28 c0 -5 -4 -9 -10 -9 -5 0 -10 7
-10 16 0 8 5 12 10 9 6 -3 10 -10 10 -16z m-1075 1 c3 -5 -1 -10 -9 -10 -9 0
-16 5 -16 10 0 6 4 10 9 10 6 0 13 -4 16 -10z m880 0 c3 -5 2 -10 -4 -10 -5 0
-13 5 -16 10 -3 6 -2 10 4 10 5 0 13 -4 16 -10z m-2030 -20 c3 -5 -1 -10 -9
-10 -9 0 -16 5 -16 10 0 6 4 10 9 10 6 0 13 -4 16 -10z m125 -5 c0 -8 -6 -25
-12 -38 -7 -12 -14 -24 -15 -26 -1 -2 -10 4 -19 14 -16 16 -16 16 2 13 14 -2
20 4 22 25 3 28 22 39 22 12z m-1265 -35 c-3 -5 -1 -10 4 -10 6 0 11 5 11 10
0 15 35 -21 44 -44 6 -17 4 -17 -10 -5 -9 8 -22 14 -28 14 -6 0 -26 9 -43 20
-30 18 -31 20 -17 37 14 15 18 15 31 3 8 -8 11 -19 8 -25z m25 30 c0 -5 -4
-10 -10 -10 -5 0 -10 5 -10 10 0 6 5 10 10 10 6 0 10 -4 10 -10z m2732 -20 c6
0 9 -3 6 -6 -4 -3 -16 0 -28 6 -18 10 -20 14 -9 21 9 6 15 4 17 -6 2 -8 8 -15
14 -15z m-2652 10 c0 -5 -5 -10 -11 -10 -5 0 -7 5 -4 10 3 6 8 10 11 10 2 0 4
-4 4 -10z m145 0 c-3 -5 -11 -10 -16 -10 -6 0 -7 5 -4 10 3 6 11 10 16 10 6 0
7 -4 4 -10z m1445 0 c0 -5 -4 -10 -10 -10 -5 0 -10 5 -10 10 0 6 5 10 10 10 6
0 10 -4 10 -10z m-690 -4 c0 -3 -4 -8 -10 -11 -5 -3 -10 -1 -10 4 0 6 5 11 10
11 6 0 10 -2 10 -4z m646 -24 c-9 -9 -37 8 -31 18 5 8 11 7 21 -1 8 -6 12 -14
10 -17z m1484 16 c0 -5 -4 -7 -9 -3 -5 3 -12 1 -16 -5 -9 -15 -25 -12 -25 4 0
8 10 14 25 14 14 0 25 -5 25 -10z m161 -9 c8 -17 8 -23 -2 -30 -10 -6 -10 -10
0 -23 9 -11 10 -20 2 -34 -8 -16 -6 -23 11 -38 13 -12 18 -13 13 -4 -12 19
-15 40 -7 39 18 -3 26 2 15 9 -8 5 -9 12 -2 22 7 13 10 13 18 1 5 -7 13 -11
19 -7 6 3 20 -7 32 -24 12 -16 17 -30 12 -30 -5 0 -22 -10 -38 -22 -16 -13
-38 -21 -52 -19 -21 2 -24 -1 -19 -18 3 -12 0 -21 -6 -21 -16 0 -39 15 -39 26
-1 20 -11 34 -23 34 -20 0 -29 19 -31 63 -2 46 14 45 36 -1 12 -25 18 -30 27
-21 9 9 8 18 -6 38 -23 34 -24 69 -3 74 29 8 31 7 43 -14z m-2521 1 c0 -5 -4
-10 -10 -10 -5 0 -10 5 -10 10 0 6 5 10 10 10 6 0 10 -4 10 -10z m396 -15 c-3
-8 2 -15 10 -17 11 -2 9 -6 -7 -16 -11 -8 -18 -9 -15 -3 4 5 2 12 -3 15 -5 3
-7 15 -4 26 3 11 10 17 15 14 5 -3 7 -12 4 -19z m858 9 c8 -20 -1 -34 -21 -34
-9 0 -13 6 -9 15 3 8 0 15 -7 15 -8 0 -6 4 3 10 21 13 27 12 34 -6z m1307 3
c-1 -12 -15 -9 -19 4 -3 6 1 10 8 8 6 -3 11 -8 11 -12z m-3191 -2 c0 -9 -40
-45 -50 -45 -5 0 -10 5 -10 11 0 5 5 7 12 3 7 -5 9 -1 6 12 -4 15 0 20 18 22
13 1 24 0 24 -3z m2831 -21 c9 -11 8 -14 -8 -14 -19 0 -43 17 -43 31 0 11 38
-2 51 -17z m-3111 6 c0 -5 -5 -10 -11 -10 -5 0 -7 5 -4 10 3 6 8 10 11 10 2 0
4 -4 4 -10z m1034 4 c9 -3 16 -10 16 -15 0 -14 -26 -10 -40 6 -13 16 -3 20 24
9z m583 -10 c2 -6 -12 -8 -34 -5 -35 4 -36 5 -13 12 30 8 43 6 47 -7z m1683 6
c0 -5 -4 -10 -10 -10 -5 0 -10 5 -10 10 0 6 5 10 10 10 6 0 10 -4 10 -10z
m241 -20 c18 0 20 -3 11 -12 -15 -15 -62 8 -62 31 1 14 2 14 14 -1 7 -10 24
-18 37 -18z m289 21 c0 -10 -30 -24 -37 -17 -3 3 -2 9 2 15 8 13 35 15 35 2z
m-3410 -10 c0 -5 -7 -12 -16 -15 -24 -9 -28 -7 -14 9 14 17 30 20 30 6z m790
-1 c0 -5 -9 -10 -20 -10 -11 0 -20 5 -20 10 0 6 9 10 20 10 11 0 20 -4 20 -10z
m2025 0 c3 -5 1 -10 -4 -10 -6 0 -11 5 -11 10 0 6 2 10 4 10 3 0 8 -4 11 -10z
m218 -15 c-3 -9 -8 -14 -10 -11 -3 3 -2 9 2 15 9 16 15 13 8 -4z m-2958 -13
c-3 -3 -11 0 -18 7 -9 10 -8 11 6 5 10 -3 15 -9 12 -12z m1405 9 c0 -4 14 -12
30 -18 17 -6 30 -16 30 -22 0 -7 -10 -5 -25 5 -14 9 -25 13 -25 8 0 -4 -5 -3
-12 4 -7 7 -25 12 -40 12 -15 0 -28 4 -28 10 0 5 16 9 35 8 19 -1 35 -4 35 -7z
m280 -1 c0 -5 7 -7 16 -3 10 4 21 -1 27 -13 27 -47 12 -56 -40 -24 -33 20 -39
30 -26 43 10 10 23 8 23 -3z m310 -8 c0 -15 -38 -44 -49 -38 -15 10 10 46 31
46 10 0 18 -4 18 -8z m-2200 -23 c0 -4 -6 -12 -14 -18 -12 -10 -20 -9 -40 4
-14 10 -26 18 -26 19 0 0 18 1 40 1 22 0 40 -3 40 -6z m33 -17 c-3 -12 -10
-22 -15 -22 -5 0 -7 -4 -4 -9 4 -5 -1 -8 -9 -7 -23 3 -22 9 5 37 29 31 31 31
23 1z m487 4 c0 -2 -9 -2 -20 1 -11 3 -20 9 -20 15 0 5 9 4 20 -2 11 -6 20
-12 20 -14z m60 14 c0 -5 -7 -10 -16 -10 -8 0 -12 5 -9 10 3 6 10 10 16 10 5
0 9 -4 9 -10z m1863 3 c7 -7 -26 -26 -61 -35 -12 -4 -22 -2 -22 3 0 5 9 9 20
9 10 0 25 7 32 15 15 16 22 18 31 8z m1063 -19 c-3 -8 1 -14 8 -14 8 0 12 -12
11 -37 -1 -21 3 -44 8 -50 6 -9 6 -13 -1 -13 -15 0 -65 51 -58 58 3 3 -11 16
-32 28 -23 15 -31 23 -19 24 9 0 17 4 17 9 0 5 8 7 19 4 10 -3 22 0 26 6 9 16
28 2 21 -15z m-3286 9 c-1 -18 -18 -35 -24 -24 -4 6 -2 11 4 11 6 0 8 5 5 10
-3 6 -1 10 4 10 6 0 11 -3 11 -7z m1574 1 c12 -5 13 -9 3 -19 -7 -7 -16 -10
-21 -7 -5 3 -7 -2 -3 -11 8 -21 0 -22 -19 -3 -19 20 -18 26 7 26 11 0 17 5 14
10 -7 11 -3 12 19 4z m80 -15 c-3 -5 2 -6 10 -3 9 4 18 0 22 -9 3 -9 12 -13
20 -10 8 3 21 2 30 -1 15 -6 15 -9 -2 -29 -16 -19 -16 -20 -1 -8 19 15 27 12
32 -16 6 -29 6 -29 15 -8 7 18 9 18 15 3 4 -10 -3 -31 -19 -55 -14 -21 -26
-32 -26 -25 0 9 -7 11 -19 7 -10 -3 -25 0 -32 7 -8 7 -20 13 -26 14 -30 2 -34
5 -27 16 5 8 2 9 -10 5 -10 -4 -15 -3 -11 3 3 6 -2 13 -12 17 -21 8 -42 33
-43 51 0 20 52 60 72 54 10 -2 15 -8 12 -13z m254 3 c3 -9 -2 -13 -14 -10 -9
1 -19 9 -22 16 -3 9 2 13 14 10 9 -1 19 -9 22 -16z m481 1 c11 -10 22 -28 24
-40 2 -12 6 -26 10 -29 12 -12 8 -24 -9 -24 -11 0 -14 -6 -9 -21 6 -19 5 -20
-14 -9 -12 6 -19 15 -16 21 17 26 14 55 -7 68 -18 11 -20 11 -15 -3 7 -18 -1
-20 -23 -6 -10 7 -11 12 -4 18 6 4 13 15 17 25 3 9 11 17 16 17 5 0 18 -8 30
-17z m786 -3 c-3 -5 -12 -10 -18 -10 -7 0 -6 4 3 10 19 12 23 12 15 0z m-3155
-10 c0 -5 -5 -10 -11 -10 -5 0 -7 5 -4 10 3 6 8 10 11 10 2 0 4 -4 4 -10z
m420 -21 c-11 -8 -10 -9 8 -4 21 6 22 5 10 -14 -15 -25 -24 -26 -32 -6 -3 8
-12 15 -20 15 -20 0 -9 28 12 33 25 5 40 -12 22 -24z m1055 21 c3 -5 -1 -10
-9 -10 -8 0 -18 5 -21 10 -3 6 1 10 9 10 8 0 18 -4 21 -10z m475 1 c0 -5 -5
-11 -11 -13 -8 -3 -8 -10 2 -25 17 -28 5 -41 -16 -19 -9 9 -23 16 -31 16 -8 0
-14 5 -14 10 0 6 6 10 14 10 7 0 19 7 26 15 14 17 30 20 30 6z m-1710 -11 c8
-5 11 -12 7 -16 -4 -4 -15 0 -24 9 -18 18 -8 23 17 7z m130 6 c0 -3 -4 -8 -10
-11 -5 -3 -10 -1 -10 4 0 6 5 11 10 11 6 0 10 -2 10 -4z m1457 -16 c1 -11 -2
-20 -6 -20 -5 0 -11 9 -14 20 -3 12 0 20 7 20 6 0 12 -9 13 -20z m652 -25 c1
-5 -6 -2 -15 7 -10 9 -13 21 -8 29 5 9 9 8 15 -7 4 -10 8 -23 8 -29z m-2449
20 c0 -8 -4 -15 -10 -15 -5 0 -10 7 -10 15 0 8 5 15 10 15 6 0 10 -7 10 -15z
m2590 -16 c0 -6 -4 -7 -10 -4 -5 3 -10 11 -10 16 0 6 5 7 10 4 6 -3 10 -11 10
-16z m458 -10 c22 -17 22 -17 -20 -12 -51 7 -52 8 -45 27 7 18 29 12 65 -15z
m72 8 c19 -8 21 -11 8 -14 -24 -6 -81 11 -86 25 -4 14 29 9 78 -11z m-3029 -8
c8 -17 8 -20 -2 -17 -7 2 -13 12 -15 21 -3 23 3 21 17 -4z m2440 11 c5 0 9 -4
9 -10 0 -16 -26 -12 -41 7 -12 15 -12 16 4 10 10 -4 23 -7 28 -7z m654 0 c3
-6 -1 -7 -9 -4 -18 7 -21 14 -7 14 6 0 13 -4 16 -10z m-2951 -16 c5 -14 4 -15
-9 -4 -17 14 -19 20 -6 20 5 0 12 -7 15 -16z m1794 -17 c10 -8 8 -14 -8 -32
-26 -28 -25 -35 5 -35 18 0 25 -5 25 -19 0 -23 -17 -31 -53 -24 -29 6 -33 13
-16 30 7 7 7 13 1 17 -5 3 -15 -1 -22 -9 -7 -8 -23 -15 -36 -15 -26 0 -32 15
-10 23 9 4 12 14 9 25 -6 26 11 36 36 20 30 -18 49 3 25 27 -17 17 -17 17 6
10 14 -4 31 -12 38 -18z m617 9 c11 -8 25 -11 32 -9 8 3 23 -5 34 -18 12 -13
27 -23 34 -21 8 1 19 -7 25 -18 10 -18 8 -20 -24 -20 -19 0 -36 -5 -38 -12 -3
-7 -11 -9 -24 -3 -10 4 -27 8 -36 9 -10 1 -17 6 -15 11 1 6 17 9 35 8 17 -1
32 2 32 7 0 6 -5 10 -12 10 -15 0 -78 49 -78 61 0 13 13 11 35 -5z m-2171 -11
c-4 -8 -10 -12 -15 -9 -11 6 -2 24 11 24 5 0 7 -7 4 -15z m181 5 c3 -5 1 -10
-4 -10 -6 0 -11 5 -11 10 0 6 2 10 4 10 3 0 8 -4 11 -10z m1879 -22 c11 -10
30 -18 43 -18 13 0 23 -4 23 -10 0 -13 -37 -13 -45 0 -4 7 -12 7 -25 0 -24
-13 -47 -4 -55 21 -13 41 19 45 59 7z m-2094 5 c15 -13 17 -20 8 -31 -9 -10
-9 -15 1 -22 11 -6 -26 -7 -60 -1 -15 3 6 71 22 71 5 0 18 -8 29 -17z m158
-20 c27 -30 28 -37 2 -23 -11 6 -20 15 -20 19 0 5 -9 11 -20 14 -11 3 -20 10
-20 16 0 15 32 1 58 -26z m1522 27 c0 -5 -4 -10 -10 -10 -5 0 -10 5 -10 10 0
6 5 10 10 10 6 0 10 -4 10 -10z m646 -17 c-7 -7 -26 7 -26 19 0 6 6 6 15 -2 9
-7 13 -15 11 -17z m-2584 -10 c19 19 28 13 21 -13 -4 -16 -9 -17 -36 -8 -40
13 -51 23 -42 37 4 8 12 4 24 -10 16 -19 19 -20 33 -6z m351 0 c6 -13 18 -23
27 -23 10 0 32 -12 49 -28 31 -27 32 -28 16 -60 -9 -17 -22 -32 -28 -32 -8 0
-7 -3 2 -9 10 -7 6 -17 -21 -47 -46 -52 -68 -109 -56 -151 5 -18 12 -33 17
-33 12 0 31 -47 31 -75 0 -14 5 -25 11 -25 5 0 17 -16 25 -35 8 -20 19 -33 24
-30 6 3 10 -1 10 -9 0 -9 7 -16 15 -16 12 0 14 -7 9 -27 -10 -43 -10 -48 1
-46 7 1 9 -13 7 -35 l-5 -36 -18 35 c-18 34 -24 31 -10 -6 5 -11 4 -28 -1 -37
-5 -11 -5 -25 1 -36 6 -12 5 -23 -5 -37 -8 -10 -14 -15 -14 -9 -1 5 -12 -4
-26 -21 -22 -27 -26 -28 -35 -13 -5 9 -16 23 -23 31 -8 8 -16 25 -18 38 -2 14
-12 26 -23 30 -11 3 -19 12 -17 21 1 9 -2 19 -8 23 -6 3 -7 0 -4 -9 3 -9 1
-16 -5 -16 -6 0 -11 5 -11 10 0 14 -37 13 -42 -1 -6 -17 -49 12 -46 31 2 8 13
16 26 18 17 3 20 7 13 20 -10 20 -8 58 4 69 4 5 5 3 2 -3 -4 -7 0 -15 9 -18
25 -10 34 -7 34 9 0 8 5 15 10 15 6 0 10 11 10 24 0 26 41 49 48 27 2 -6 10
-11 17 -11 26 0 22 71 -7 142 -32 76 -34 100 -13 118 21 17 19 58 -2 62 -25 6
-54 -3 -47 -13 3 -5 2 -15 -3 -21 -4 -7 -8 -20 -8 -28 0 -11 -9 -14 -30 -12
-41 5 -52 18 -20 26 18 5 25 12 21 21 -3 8 0 15 6 15 6 0 8 3 4 7 -4 5 -14 0
-21 -11 -13 -17 -35 -15 -35 3 0 8 28 21 55 26 6 1 23 8 38 15 24 12 30 12 38
-1 8 -12 10 -12 18 0 12 19 2 43 -15 37 -8 -3 -14 1 -14 10 0 8 -4 12 -10 9
-5 -3 -10 -2 -10 3 0 11 51 23 64 15 4 -3 2 -10 -5 -15 -12 -8 -11 -9 0 -6 8
3 17 10 19 16 5 15 -41 33 -49 20 -9 -14 -74 6 -74 23 0 9 9 13 23 12 26 -3
28 9 5 32 -15 16 -14 17 13 15 55 -4 60 0 29 20 -27 18 -28 19 -6 17 14 -1 28
-11 34 -24z m2102 -11 c-6 -7 -35 18 -35 31 0 5 9 2 20 -8 11 -10 18 -20 15
-23z m-2388 -4 c-3 -7 -5 -2 -5 12 0 14 2 19 5 13 2 -7 2 -19 0 -25z m123 10
c0 -18 -2 -20 -9 -8 -6 8 -7 18 -5 22 9 14 14 9 14 -14z m2595 12 c3 -5 1 -10
-4 -10 -6 0 -11 5 -11 10 0 6 2 10 4 10 3 0 8 -4 11 -10z m225 -12 c0 -6 -6
-5 -15 2 -8 7 -15 14 -15 16 0 2 7 1 15 -2 8 -4 15 -11 15 -16z m-2905 -7 c-3
-6 -11 -11 -17 -11 -6 0 -6 6 2 15 14 17 26 13 15 -4z m1579 -8 c10 4 16 1 16
-8 0 -8 -8 -15 -19 -15 -21 0 -44 23 -34 34 4 3 10 1 14 -5 4 -7 14 -9 23 -6z
m336 1 c0 -8 -4 -12 -10 -9 -5 3 -10 10 -10 16 0 5 5 9 10 9 6 0 10 -7 10 -16z
m-2080 -4 c0 -5 -2 -10 -4 -10 -3 0 -8 5 -11 10 -3 6 -1 10 4 10 6 0 11 -4 11
-10z m65 -23 c14 -11 15 -16 5 -22 -7 -4 -15 -3 -19 2 -9 13 -31 10 -41 -7 -5
-8 -12 -11 -16 -7 -6 6 33 46 47 47 3 0 13 -6 24 -13z m1946 -4 c16 -16 4 -43
-18 -43 -26 0 -52 20 -35 27 6 2 12 11 12 18 0 15 25 14 41 -2z m-1796 -19
c-1 -11 -7 -18 -15 -16 -11 3 -11 0 0 -13 10 -12 15 -13 20 -4 4 6 13 8 19 5
6 -4 11 0 11 10 0 13 5 11 25 -10 14 -15 23 -32 20 -37 -9 -14 23 -41 37 -33
10 5 10 4 2 -5 -9 -10 -17 -10 -33 -2 -18 10 -20 9 -14 -6 6 -16 4 -16 -15 1
-22 19 -27 14 -23 -21 2 -14 -38 -38 -47 -28 -3 3 -7 16 -8 28 -2 33 -15 67
-25 67 -5 0 -6 -7 -3 -15 5 -11 2 -13 -10 -9 -9 3 -16 12 -16 19 0 6 -9 22
-20 35 -24 27 -26 50 -5 50 10 0 12 -6 8 -17 -6 -15 -4 -16 9 -5 13 10 17 10
20 1 3 -9 11 -6 24 8 23 25 39 24 39 -3z m2256 14 c9 -80 2 -100 -22 -57 -8
16 -8 23 0 29 7 3 9 14 5 23 -3 10 -1 17 5 17 6 0 12 -6 12 -12z m-836 -8 c3
-5 28 -12 55 -16 28 -4 50 -9 50 -13 0 -10 -39 -41 -53 -42 -9 0 -9 -2 1 -6 6
-2 10 -9 6 -14 -3 -5 2 -12 10 -15 9 -3 16 -11 16 -16 0 -6 -11 -3 -25 6 -30
20 -39 20 -32 2 4 -10 1 -13 -9 -9 -10 3 -12 12 -8 27 4 11 3 18 -2 13 -10 -9
-47 70 -39 83 8 13 22 13 30 0z m1285 -11 c0 -6 -4 -7 -10 -4 -5 3 -10 11 -10
16 0 6 5 7 10 4 6 -3 10 -11 10 -16z m143 -41 c6 -22 5 -22 -8 -4 -17 22 -20
40 -6 32 5 -3 11 -16 14 -28z m-3043 -13 c0 -1 -11 0 -25 3 -14 2 -25 11 -25
18 0 12 5 11 25 -2 14 -9 25 -17 25 -19z m1795 25 c-3 -5 -10 -10 -16 -10 -5
0 -9 5 -9 10 0 6 7 10 16 10 8 0 12 -4 9 -10z m15 -15 c0 -3 -7 -13 -15 -22
-8 -10 -21 -27 -29 -38 -8 -11 -17 -17 -21 -14 -3 4 1 14 9 22 10 9 13 23 9
33 -4 11 -3 15 5 10 6 -3 13 -2 17 4 6 10 25 14 25 5z m30 -5 c0 -5 -2 -10 -4
-10 -3 0 -8 5 -11 10 -3 6 -1 10 4 10 6 0 11 -4 11 -10z m310 0 c0 -5 -4 -10
-10 -10 -5 0 -10 5 -10 10 0 6 5 10 10 10 6 0 10 -4 10 -10z m900 -52 c0 -26
-27 -22 -34 5 -11 40 -7 48 14 30 11 -10 20 -25 20 -35z m-3130 32 c0 -5 -7
-10 -15 -10 -8 0 -15 -4 -15 -10 0 -5 -4 -10 -10 -10 -18 0 -10 17 13 28 28
14 27 14 27 2z m1245 -39 c39 -27 69 -54 68 -60 -2 -6 2 -11 7 -11 6 0 10 -8
10 -18 0 -25 29 -64 42 -56 7 4 8 2 4 -5 -4 -6 0 -14 8 -17 10 -4 16 -19 16
-40 0 -28 4 -34 23 -34 20 -1 20 -2 5 -13 -12 -9 -14 -17 -7 -30 11 -19 39
-23 39 -6 0 5 -4 8 -9 4 -16 -9 -22 12 -7 25 12 9 17 7 26 -10 6 -11 8 -25 5
-30 -3 -6 1 -10 9 -10 10 0 17 -15 21 -47 3 -27 10 -62 15 -79 6 -17 10 -41
11 -55 0 -13 3 -18 6 -11 7 18 23 15 23 -5 0 -28 9 -9 16 33 3 21 8 41 11 44
9 8 -5 -83 -16 -113 -13 -33 -31 -36 -24 -4 4 15 2 19 -5 12 -5 -5 -15 -41
-21 -78 -9 -64 -47 -164 -58 -153 -3 2 1 14 7 27 26 47 18 159 -11 159 -5 0
-26 10 -47 23 -20 12 -48 24 -62 26 -14 2 -36 11 -51 21 -50 36 -107 36 -64 0
23 -19 18 -47 -9 -54 -13 -3 -48 -1 -76 4 -29 6 -55 10 -58 10 -2 0 1 7 8 15
10 12 10 18 0 30 -9 11 -9 22 -1 46 6 18 11 44 11 59 0 15 6 33 14 39 12 10
16 5 26 -24 11 -32 38 -58 57 -53 4 1 28 -1 52 -5 45 -8 111 6 111 24 0 5 -19
9 -42 9 -52 0 -40 18 18 26 21 3 46 8 54 11 14 6 24 9 35 12 12 3 -27 61 -54
80 -22 16 -45 21 -98 21 -45 1 -81 7 -107 19 -22 11 -46 17 -53 14 -16 -6 -17
9 -1 25 7 7 9 12 5 12 -4 0 -3 9 3 19 13 25 -4 38 -26 20 -11 -9 -18 -8 -33 5
-21 19 -36 60 -18 49 6 -4 8 0 4 10 -3 10 -2 17 3 17 6 0 10 7 10 15 0 8 9 15
19 15 20 0 31 18 31 51 0 16 26 36 50 38 3 0 37 -21 75 -48z m923 6 c4 -21
-24 -52 -33 -37 -3 5 -2 10 3 10 5 0 7 12 4 26 -4 20 -1 25 9 22 8 -3 15 -12
17 -21z m-118 3 c0 -5 -4 -10 -10 -10 -5 0 -10 5 -10 10 0 6 5 10 10 10 6 0
10 -4 10 -10z m-160 -20 c0 -5 -9 -10 -21 -10 -11 0 -17 5 -14 10 3 6 13 10
21 10 8 0 14 -4 14 -10z m103 -5 c-4 -14 -46 -12 -50 2 -3 8 6 11 24 10 15 -1
27 -7 26 -12z m1262 5 c3 -6 -1 -7 -9 -4 -18 7 -21 14 -7 14 6 0 13 -4 16 -10z
m-3020 -9 c10 -18 -17 -23 -33 -7 -15 15 -15 16 5 16 12 0 24 -4 28 -9z m2225
-1 c0 -5 -2 -10 -4 -10 -3 0 -8 5 -11 10 -3 6 -1 10 4 10 6 0 11 -4 11 -10z
m735 0 c3 -5 1 -10 -4 -10 -6 0 -11 5 -11 10 0 6 2 10 4 10 3 0 8 -4 11 -10z
m-1465 -10 c0 -5 -4 -10 -10 -10 -5 0 -10 5 -10 10 0 6 5 10 10 10 6 0 10 -4
10 -10z m95 0 c3 -5 1 -10 -4 -10 -6 0 -11 5 -11 10 0 6 2 10 4 10 3 0 8 -4
11 -10z m255 -9 c-1 -17 -31 -43 -45 -38 -19 8 -20 27 0 27 8 0 15 7 15 15 0
9 6 12 15 9 8 -4 15 -9 15 -13z m260 9 c0 -5 -2 -10 -4 -10 -3 0 -8 5 -11 10
-3 6 -1 10 4 10 6 0 11 -4 11 -10z m170 0 c0 -5 -5 -10 -11 -10 -5 0 -7 5 -4
10 3 6 8 10 11 10 2 0 4 -4 4 -10z m-3116 -6 c22 -9 10 -24 -20 -24 -25 0 -33
15 -11 23 6 3 13 6 14 6 1 1 8 -2 17 -5z m2908 -31 c-6 -3 -10 -9 -6 -14 6
-10 -19 -13 -28 -4 -3 4 -1 17 6 30 10 22 12 23 26 8 11 -12 12 -16 2 -20z
m-2512 18 c0 -5 -7 -11 -15 -15 -15 -5 -20 5 -8 17 9 10 23 9 23 -2z m2657
-18 c14 -28 11 -39 -6 -28 -6 3 -9 11 -6 16 4 5 -1 12 -9 15 -19 7 -21 24 -3
24 6 0 18 -12 24 -27z m527 13 c6 2 17 -6 25 -18 13 -22 13 -22 -4 -8 -10 8
-25 15 -33 15 -8 0 -17 7 -20 15 -3 12 -2 12 8 3 7 -6 18 -9 24 -7z m-2698
-11 c16 -8 27 -15 24 -16 -37 -6 -49 -3 -53 13 -6 22 -6 22 29 3z m1685 -1
c10 -13 10 -17 -2 -25 -15 -9 -49 -12 -49 -4 0 9 25 45 31 45 4 0 12 -7 20
-16z m1128 7 c11 -7 11 -10 0 -17 -8 -5 -14 -16 -14 -24 0 -8 -8 -16 -17 -18
-21 -4 -25 37 -6 56 14 14 19 15 37 3z m-2930 -27 c-9 -11 -15 -12 -23 -4 -8
8 -7 13 4 20 20 12 33 1 19 -16z m-705 1 c-7 -17 -20 -20 -29 -6 -3 5 3 12 12
14 10 3 19 5 20 6 1 0 0 -6 -3 -14z m3475 -21 c26 -44 26 -44 -3 -44 -13 0
-26 -7 -30 -15 -3 -8 -1 -15 3 -15 5 0 11 5 13 12 3 7 12 9 23 4 16 -6 17 -9
5 -16 -12 -7 -11 -12 4 -29 18 -20 18 -20 -30 -19 -43 1 -54 6 -91 41 -49 47
-54 62 -17 53 43 -11 61 0 56 34 -4 27 -1 30 21 30 18 0 31 -10 46 -36z m-109
1 c0 -8 -6 -12 -14 -9 -8 3 -12 12 -9 20 6 17 23 9 23 -11z m157 3 c-3 -8 -6
-5 -6 6 -1 11 2 17 5 13 3 -3 4 -12 1 -19z m189 10 c7 -8 -18 -68 -28 -68 -4
0 -7 17 -5 39 2 35 15 47 33 29z m-1460 -44 c-6 -27 -10 -34 -19 -25 -8 8 -8
14 1 23 7 7 12 21 12 32 0 10 3 17 6 13 4 -3 3 -23 0 -43z m384 42 c0 -3 -4
-8 -10 -11 -5 -3 -10 -1 -10 4 0 6 5 11 10 11 6 0 10 -2 10 -4z m-2720 -16 c0
-5 -4 -10 -10 -10 -5 0 -10 5 -10 10 0 6 5 10 10 10 6 0 10 -4 10 -10z m2940
0 c0 -5 -4 -10 -10 -10 -5 0 -10 5 -10 10 0 6 5 10 10 10 6 0 10 -4 10 -10z
m170 -4 c0 -3 -4 -8 -10 -11 -5 -3 -10 -1 -10 4 0 6 5 11 10 11 6 0 10 -2 10
-4z m-2231 -37 c9 -21 16 -27 21 -19 8 12 30 6 30 -8 0 -4 -15 -15 -33 -26
-31 -18 -32 -19 -9 -27 22 -8 31 -39 12 -39 -7 0 -7 -6 0 -19 13 -26 -8 -41
-25 -17 -7 9 -19 15 -26 14 -9 -2 -13 5 -11 20 1 12 3 32 5 45 1 17 -3 22 -20
20 -14 -2 -23 3 -23 11 0 8 -6 17 -12 19 -7 3 -3 6 10 6 12 1 21 7 20 14 -2 6
5 11 15 11 9 -1 17 4 17 12 0 24 15 15 29 -17z m1981 22 c0 -17 -25 -28 -50
-21 -25 7 -23 9 20 23 23 8 30 8 30 -2z m526 -14 c-1 -17 -6 -23 -18 -19 -20
5 -20 5 -12 26 9 25 32 19 30 -7z m260 -4 c-10 -10 -19 5 -10 18 6 11 8 11 12
0 2 -7 1 -15 -2 -18z m-3476 13 c0 -3 -4 -8 -10 -11 -5 -3 -10 -1 -10 4 0 6 5
11 10 11 6 0 10 -2 10 -4z m2530 -26 c0 -13 -37 -13 -45 0 -3 6 -3 15 0 20 7
12 45 -5 45 -20z m479 24 c36 -7 45 -44 12 -44 -11 0 -23 -4 -26 -10 -10 -17
-22 -11 -29 13 -5 18 -8 20 -16 7 -14 -22 -12 -3 2 20 14 22 14 22 57 14z
m-2159 -14 c8 -5 11 -12 7 -16 -4 -4 -15 0 -24 9 -18 18 -8 23 17 7z m-970
-10 c0 -5 -9 -10 -20 -10 -11 0 -20 5 -20 10 0 6 9 10 20 10 11 0 20 -4 20
-10z m644 -12 c11 -18 -7 -49 -28 -47 -7 0 -7 2 1 5 16 7 5 34 -14 34 -13 0
-13 3 -3 15 15 18 29 16 44 -7z m-511 6 c9 -9 -4 -34 -18 -34 -8 0 -11 8 -8
20 5 20 15 25 26 14z m2703 -5 c10 -17 -13 -36 -27 -22 -12 12 -4 33 11 33 5
0 12 -5 16 -11z m442 -8 c3 -8 -1 -12 -9 -9 -7 2 -15 10 -17 17 -3 8 1 12 9 9
7 -2 15 -10 17 -17z m96 -6 c-7 -16 -24 -21 -24 -6 0 8 7 13 27 20 1 1 0 -6
-3 -14z m426 -22 c0 -7 5 -13 11 -13 6 0 9 -8 7 -17 -6 -31 -33 -21 -34 12 -1
16 -6 31 -13 33 -6 2 -11 8 -11 13 0 5 9 4 20 -3 11 -7 20 -18 20 -25z m-3265
17 c-3 -5 -11 -10 -16 -10 -6 0 -7 5 -4 10 3 6 11 10 16 10 6 0 7 -4 4 -10z
m2252 -26 c-9 -10 -38 16 -31 28 4 6 13 4 22 -6 9 -8 13 -19 9 -22z m-1134 6
c20 -1 21 -2 5 -14 -10 -7 -15 -16 -11 -19 3 -4 1 -7 -5 -7 -7 0 -12 5 -12 12
0 6 -9 0 -21 -13 -17 -19 -22 -21 -29 -9 -6 9 -5 17 3 22 9 6 9 8 -1 8 -8 0
-12 6 -10 12 5 15 52 28 56 16 2 -4 13 -8 25 -8z m857 10 c0 -5 -2 -10 -4 -10
-3 0 -8 5 -11 10 -3 6 -1 10 4 10 6 0 11 -4 11 -10z m150 6 c0 -2 -7 -6 -15
-10 -8 -3 -15 -1 -15 4 0 6 7 10 15 10 8 0 15 -2 15 -4z m-2109 -29 c-13 -13
-26 -3 -16 12 3 6 11 8 17 5 6 -4 6 -10 -1 -17z m2050 10 c-1 -12 -15 -9 -19
4 -3 6 1 10 8 8 6 -3 11 -8 11 -12z m323 -18 c-10 -16 -24 -9 -24 12 0 18 2
19 15 9 8 -7 12 -16 9 -21z m-1974 1 c0 -5 -7 -7 -15 -4 -8 4 -12 10 -9 15 6
11 24 2 24 -11z m2620 5 c0 -8 -2 -15 -4 -15 -2 0 -6 7 -10 15 -3 8 -1 15 4
15 6 0 10 -7 10 -15z m-3700 -7 c0 -11 -28 -10 -35 1 -3 6 4 9 15 8 11 -1 20
-5 20 -9z m500 2 c0 -5 -4 -10 -10 -10 -5 0 -10 5 -10 10 0 6 5 10 10 10 6 0
10 -4 10 -10z m2157 -6 c11 -29 -47 -63 -76 -45 -12 8 -13 12 -2 25 11 13 16
14 29 4 13 -11 14 -11 8 1 -5 8 -3 17 5 22 20 13 29 11 36 -7z m-2399 -14 c37
-17 41 -29 10 -32 -13 0 -27 -2 -33 -3 -5 -2 -14 -3 -20 -4 -5 -1 -3 -6 5 -11
11 -7 5 -9 -22 -6 -41 5 -62 -19 -33 -40 17 -13 10 -21 -15 -19 -8 1 -23 3
-34 3 -12 1 -16 7 -12 17 3 8 1 15 -4 15 -6 0 -10 6 -10 14 0 8 -5 18 -10 21
-6 4 -9 1 -8 -5 2 -7 -7 -14 -19 -16 -29 -5 -29 10 -1 30 19 14 23 14 34 -2
12 -16 14 -16 28 3 8 11 16 25 16 32 0 6 17 13 38 15 50 5 53 4 90 -12z m312
-12 c0 -21 -3 -29 -10 -22 -5 5 -7 19 -4 32 9 31 14 27 14 -10z m1970 17 c0
-8 -2 -15 -4 -15 -2 0 -12 -3 -21 -7 -15 -5 -16 -3 -6 15 13 25 31 29 31 7z
m355 5 c3 -5 1 -10 -4 -10 -6 0 -11 5 -11 10 0 6 2 10 4 10 3 0 8 -4 11 -10z
m669 -6 c5 -14 4 -15 -9 -4 -17 14 -19 20 -6 20 5 0 12 -7 15 -16z m215 -3
c22 -14 -8 -53 -42 -57 -30 -3 -31 -1 -17 27 8 15 17 18 37 13 18 -5 24 -4 19
5 -4 6 -11 9 -15 7 -4 -3 -13 -1 -21 5 -12 7 -11 9 5 9 11 0 26 -4 34 -9z
m-3743 -10 c-7 -11 -46 -21 -46 -12 0 13 13 21 32 21 11 0 17 -4 14 -9z m3469
-1 c3 -5 -1 -10 -10 -10 -9 0 -13 5 -10 10 3 6 8 10 10 10 2 0 7 -4 10 -10z
m185 0 c0 -5 -4 -10 -10 -10 -5 0 -10 5 -10 10 0 6 5 10 10 10 6 0 10 -4 10
-10z m-3322 -20 c-25 -20 -34 -19 -25 2 2 8 14 14 26 15 22 2 22 2 -1 -17z
m1307 10 c3 -5 -3 -10 -15 -10 -12 0 -18 5 -15 10 3 6 10 10 15 10 5 0 12 -4
15 -10z m892 -10 c9 -13 9 -21 2 -26 -14 -8 -43 21 -35 35 10 16 20 14 33 -9z
m1093 10 c0 -5 -4 -10 -10 -10 -5 0 -10 5 -10 10 0 6 5 10 10 10 6 0 10 -4 10
-10z m166 -5 c-8 -8 -18 -15 -22 -15 -3 0 -1 7 6 15 7 8 17 15 22 15 5 0 3 -7
-6 -15z m-2767 -9 c7 -8 8 -16 4 -19 -11 -7 -45 18 -36 26 10 11 19 8 32 -7z
m1411 -12 c43 -29 48 -39 25 -51 -10 -6 -11 -13 -5 -23 7 -10 10 -11 10 -2 0
6 5 12 10 12 15 0 12 -12 -10 -39 -17 -19 -23 -21 -35 -11 -8 7 -15 22 -15 34
0 16 -2 18 -9 7 -8 -13 -12 -13 -26 -1 -15 12 -16 11 -9 -14 5 -20 1 -32 -14
-46 -20 -19 -20 -19 -36 5 -9 13 -16 29 -16 34 0 5 -5 11 -11 13 -9 3 -9 10 1
27 7 15 8 21 1 17 -6 -4 -11 0 -11 9 0 10 6 15 18 13 9 -2 16 -10 14 -17 -2
-8 3 -11 12 -8 9 4 18 2 21 -2 6 -10 45 -3 45 8 0 4 -5 12 -11 18 -11 11 -6
43 6 43 3 0 23 -12 45 -26z m-1690 -29 c0 -16 6 -21 24 -20 13 0 28 3 32 8 14
14 26 7 14 -8 -11 -13 -10 -14 5 -9 12 5 23 1 31 -11 13 -18 15 -18 34 3 24
26 33 27 49 8 10 -11 6 -20 -16 -40 l-28 -26 28 0 c18 0 27 -5 27 -16 0 -11
-6 -14 -21 -9 -18 6 -19 5 -8 -13 7 -12 20 -23 29 -25 10 -2 19 -14 23 -26 4
-16 1 -21 -13 -21 -11 0 -22 5 -25 10 -10 16 -40 11 -63 -10 -24 -23 -38 -24
-70 -7 l-23 13 25 27 c14 15 24 27 22 27 -10 0 -57 -29 -57 -34 1 -3 -2 -6 -6
-6 -5 0 -8 8 -8 18 0 23 -14 44 -25 37 -5 -3 -12 0 -16 6 -3 6 -2 14 4 18 8 5
7 19 -4 49 -8 24 -12 48 -8 53 3 5 2 9 -3 8 -25 -4 -24 3 2 20 32 19 45 13 45
-24z m1304 30 c3 -8 0 -15 -7 -15 -8 0 -7 -4 3 -11 11 -8 8 -9 -15 -4 -34 7
-50 26 -32 37 20 13 44 9 51 -7z m-1694 -5 c0 -5 -7 -10 -16 -10 -8 0 -12 5
-9 10 3 6 10 10 16 10 5 0 9 -4 9 -10z m520 -12 c0 -6 -6 -5 -15 2 -8 7 -15
14 -15 16 0 2 7 1 15 -2 8 -4 15 -11 15 -16z m2488 3 c3 -8 -1 -12 -9 -9 -7 2
-15 10 -17 17 -3 8 1 12 9 9 7 -2 15 -10 17 -17z m-653 -1 c3 -5 1 -10 -4 -10
-6 0 -11 5 -11 10 0 6 2 10 4 10 3 0 8 -4 11 -10z m-115 -16 c0 -9 -5 -14 -12
-12 -18 6 -21 28 -4 28 9 0 16 -7 16 -16z m-2550 -15 c0 -5 -12 -9 -26 -9 -22
0 -24 2 -14 14 12 15 40 11 40 -5z m1023 7 c6 -15 -22 -46 -41 -46 -23 0 -24
23 -1 41 29 22 35 23 42 5z m1611 -15 c18 -19 14 -47 -5 -36 -5 4 -9 2 -9 -4
0 -6 -7 -8 -15 -5 -17 7 -20 34 -4 34 8 0 8 5 -1 15 -20 24 13 19 34 -4z m46
7 c0 -4 -9 -8 -20 -8 -11 0 -20 4 -20 8 0 4 9 8 20 8 11 0 20 -4 20 -8z m-210
-8 c0 -5 -4 -10 -10 -10 -5 0 -10 5 -10 10 0 6 5 10 10 10 6 0 10 -4 10 -10z
m890 0 c0 -5 -2 -10 -4 -10 -3 0 -8 5 -11 10 -3 6 -1 10 4 10 6 0 11 -4 11
-10z m-350 -42 c0 -15 -28 -8 -34 8 -10 26 5 39 21 19 7 -11 13 -22 13 -27z
m-2363 10 c-3 -8 -6 -5 -6 6 -1 11 2 17 5 13 3 -3 4 -12 1 -19z m2255 -4 c-5
-27 -10 -30 -25 -14 -10 10 -9 11 2 5 10 -6 11 -2 6 15 -5 16 -4 21 6 18 8 -3
12 -14 11 -24z m-2337 6 c3 -5 -1 -10 -9 -10 -9 0 -16 5 -16 10 0 6 4 10 9 10
6 0 13 -4 16 -10z m55 -50 c0 -11 -4 -20 -9 -20 -5 0 -7 9 -4 20 3 11 7 20 9
20 2 0 4 -9 4 -20z m2148 -16 c-3 -14 -5 -12 -10 9 -3 19 -2 25 4 19 6 -6 8
-18 6 -28z m579 14 c-3 -8 -6 -5 -6 6 -1 11 2 17 5 13 3 -3 4 -12 1 -19z
m-157 4 c0 -13 -12 -22 -22 -16 -10 6 -1 24 13 24 5 0 9 -4 9 -8z m-1749 -28
c9 -11 15 -11 25 -3 17 14 19 -9 5 -59 -6 -20 -6 -32 0 -32 14 0 11 -28 -7
-55 -15 -24 -15 -90 0 -140 4 -11 -5 5 -20 35 -25 52 -30 75 -39 150 -17 137
-17 129 4 123 11 -3 26 -11 32 -19z m2009 7 c7 -13 7 -22 0 -26 -13 -8 -43 22
-35 35 10 16 23 12 35 -9z m-1095 -1 c3 -5 1 -10 -4 -10 -6 0 -11 5 -11 10 0
6 2 10 4 10 3 0 8 -4 11 -10z m625 0 c12 -7 12 -12 3 -21 -9 -9 -16 -9 -28 1
-29 24 -9 42 25 20z m-640 -31 c0 -6 -4 -7 -10 -4 -5 3 -10 11 -10 16 0 6 5 7
10 4 6 -3 10 -11 10 -16z m1520 0 c0 -6 -4 -7 -10 -4 -5 3 -10 11 -10 16 0 6
5 7 10 4 6 -3 10 -11 10 -16z m-3774 -26 c-10 -10 -19 5 -10 18 6 11 8 11 12
0 2 -7 1 -15 -2 -18z m34 13 c0 -3 -4 -8 -10 -11 -5 -3 -10 -1 -10 4 0 6 5 11
10 11 6 0 10 -2 10 -4z m1486 -18 c8 -26 -18 -48 -55 -47 -18 0 -21 3 -11 7 8
4 16 14 18 22 4 19 22 40 33 40 4 0 11 -10 15 -22z m30 -5 c-10 -10 -19 5 -10
18 6 11 8 11 12 0 2 -7 1 -15 -2 -18z m679 17 c3 -5 1 -10 -4 -10 -6 0 -11 5
-11 10 0 6 2 10 4 10 3 0 8 -4 11 -10z m55 -10 c0 -5 -4 -10 -10 -10 -5 0 -10
5 -10 10 0 6 5 10 10 10 6 0 10 -4 10 -10z m-2265 -31 c4 -11 4 -31 1 -45 -4
-13 -3 -24 2 -24 13 0 33 -48 23 -54 -5 -3 -16 3 -26 14 -10 11 -24 20 -30 20
-27 0 -33 54 -9 88 19 28 31 28 39 1z m1566 -10 c-5 -13 -10 -19 -10 -12 -1
15 10 45 15 40 3 -2 0 -15 -5 -28z m937 12 c3 -8 -1 -12 -9 -9 -7 2 -15 10
-17 17 -3 8 1 12 9 9 7 -2 15 -10 17 -17z m-214 -7 c6 -15 4 -15 -11 -3 -10 7
-20 15 -22 16 -2 2 3 3 11 3 9 0 19 -7 22 -16z m165 -3 c15 -12 23 -30 26 -59
2 -24 0 -40 -6 -37 -5 3 -6 -1 -3 -9 3 -9 15 -16 25 -16 21 0 25 -20 9 -36 -7
-7 -3 -14 14 -22 17 -8 27 -8 32 -1 7 11 44 -23 44 -41 0 -9 -21 -15 -42 -11
-5 0 -8 -6 -8 -14 0 -8 -4 -15 -10 -15 -5 0 -7 -7 -4 -15 4 -8 2 -15 -4 -15
-5 0 -13 12 -17 28 -7 27 -7 27 -18 5 -5 -13 -14 -23 -19 -23 -5 0 -7 10 -4
23 3 12 3 17 0 10 -3 -7 -12 -9 -19 -7 -9 4 -13 -1 -12 -15 1 -11 7 -23 15
-26 8 -3 12 -12 9 -19 -3 -8 1 -17 9 -20 10 -4 14 2 14 20 0 16 5 24 13 21 11
-4 14 -53 3 -64 -2 -3 -14 0 -25 7 -14 7 -21 7 -21 0 0 -5 6 -10 14 -10 7 0
19 -6 25 -14 18 -21 -5 -31 -25 -11 -11 11 -23 13 -38 8 -24 -9 -101 -8 -162
2 -40 7 -41 9 -53 57 -6 28 -9 53 -6 56 3 3 5 -2 5 -11 0 -10 2 -17 4 -17 2 0
13 -3 23 -7 16 -6 16 -5 4 10 -16 21 -11 30 13 21 11 -4 16 -15 14 -33 -3 -30
30 -70 43 -50 9 16 39 4 39 -15 0 -10 6 -13 16 -9 12 5 13 7 2 14 -10 6 -10
11 0 21 14 14 16 32 2 23 -17 -10 -11 12 8 31 16 17 16 17 0 11 -10 -3 -20 -2
-23 3 -9 15 7 40 26 40 10 0 19 4 19 9 0 5 6 16 14 24 12 12 12 18 -2 47 -12
24 -13 35 -4 38 19 6 -8 40 -28 35 -20 -5 -35 11 -25 27 4 7 12 7 24 0 14 -7
23 -5 36 10 19 21 7 28 -12 9 -13 -13 -43 10 -43 33 0 20 62 19 89 -1z m-2561
-46 c2 -26 -12 -32 -38 -15 -12 8 -13 12 -2 19 11 6 10 10 -3 15 -14 5 -15 9
-5 21 11 14 15 14 29 1 9 -8 18 -27 19 -41z m1235 22 c-3 -5 -10 -4 -15 1 -6
6 -7 16 -3 22 6 9 9 9 16 -1 4 -7 5 -17 2 -22z m1088 16 c13 -16 12 -17 -3 -4
-17 13 -22 21 -14 21 2 0 10 -8 17 -17z m-2133 -39 c12 -9 12 -15 2 -35 -28
-52 -54 -40 -44 21 8 44 16 58 22 40 3 -8 12 -20 20 -26z m784 4 c-15 -15 -26
-4 -18 18 5 13 9 15 18 6 9 -9 9 -15 0 -24z m416 7 c-3 -3 -9 2 -12 12 -6 14
-5 15 5 6 7 -7 10 -15 7 -18z m982 15 c0 -5 -4 -10 -10 -10 -5 0 -10 5 -10 10
0 6 5 10 10 10 6 0 10 -4 10 -10z m-2330 -18 c0 -23 86 -136 107 -141 11 -2
14 2 10 13 -8 21 2 20 20 -1 12 -16 12 -14 1 10 -15 35 -1 51 47 53 31 1 35
-2 30 -20 -4 -12 -3 -16 2 -10 4 6 17 16 28 22 17 10 18 11 3 12 -10 0 -18 7
-18 15 0 8 7 15 15 15 8 0 15 9 15 21 0 11 5 17 10 14 6 -4 8 -10 6 -14 -3 -4
-1 -13 5 -21 6 -10 9 -11 9 -2 0 15 26 16 35 2 4 -6 1 -17 -5 -25 -10 -12 -9
-15 4 -15 13 0 16 -5 11 -20 -5 -15 -2 -20 10 -20 12 0 15 -5 11 -16 -5 -14
-4 -15 9 -4 18 15 17 15 35 -28 12 -31 11 -35 -14 -61 -20 -21 -24 -30 -14
-33 11 -4 11 -8 -1 -21 -11 -14 -11 -18 3 -23 10 -4 16 -18 16 -38 0 -24 -3
-27 -10 -16 -8 13 -10 13 -10 -1 0 -9 -7 -22 -15 -29 -22 -18 -18 -33 6 -27
20 6 20 4 -4 -21 -13 -15 -28 -38 -32 -51 -4 -14 -10 -19 -14 -13 -7 12 -56
10 -68 -2 -4 -4 -1 -11 7 -16 11 -7 11 -11 1 -24 -13 -16 -36 -12 -26 4 7 11
-20 72 -28 64 -4 -4 -13 -1 -21 5 -12 10 -18 9 -34 -7 -10 -10 -22 -27 -26
-38 -6 -12 -10 -15 -13 -6 -6 14 -33 16 -33 2 0 -5 5 -10 10 -10 6 0 10 -7 10
-15 0 -9 9 -15 21 -15 17 0 20 -4 16 -22 -4 -14 1 -27 14 -39 18 -15 18 -20 7
-38 -8 -14 -18 -19 -28 -15 -8 4 -26 7 -38 7 -19 -1 -23 3 -19 18 4 16 1 19
-14 14 -13 -4 -19 -2 -17 6 2 7 -5 15 -16 17 -11 2 -16 0 -12 -7 4 -6 3 -11
-3 -11 -5 0 -18 -3 -28 -6 -14 -4 -15 -4 -4 4 11 8 11 14 -3 33 -23 34 -20 39
14 23 37 -19 68 -5 67 31 0 13 -3 22 -8 20 -4 -3 -7 3 -7 12 1 10 -2 30 -5 46
-7 27 -2 31 41 30 6 -1 12 3 12 8 0 5 15 23 33 40 l32 31 -33 -26 c-39 -31
-49 -32 -55 -8 -4 14 -6 14 -12 -5 -4 -13 -12 -23 -17 -23 -6 0 -7 7 -4 16 3
8 1 24 -5 35 -10 19 -9 19 10 9 17 -9 22 -8 27 4 9 23 -27 76 -51 76 -12 0
-27 6 -35 13 -12 10 -12 9 -1 -5 7 -10 10 -18 6 -18 -5 0 0 -9 10 -20 10 -11
15 -23 10 -28 -4 -4 -10 -1 -12 6 -6 16 -23 15 -23 -2 0 -20 -30 -43 -31 -25
-1 8 -5 1 -9 -16 l-8 -30 -1 36 c-1 26 4 39 16 43 12 5 14 9 5 18 -7 7 -12 27
-12 45 0 27 5 34 25 39 14 3 31 14 38 23 9 14 19 16 43 9 33 -8 52 -44 34 -62
-15 -15 -12 -46 4 -46 8 0 18 5 21 10 8 14 35 -6 35 -26 0 -8 6 -11 16 -7 9 3
14 13 11 24 -6 22 3 24 22 7 11 -11 11 -9 2 9 -12 23 -11 25 37 50 12 7 21 9
18 5 -3 -5 -1 -14 4 -22 7 -12 12 -12 21 -3 18 18 -6 43 -41 43 -15 0 -38 10
-52 23 -21 20 -28 22 -42 11 -19 -14 -93 -9 -113 8 -10 8 -10 14 -3 23 7 8 7
15 1 19 -5 3 -7 14 -4 24 2 10 -3 24 -11 31 -17 14 -20 38 -10 65 8 22 24 20
24 -2z m3193 -7 c3 -16 0 -24 -7 -22 -14 4 -21 47 -8 47 5 0 12 -11 15 -25z
m57 15 c0 -5 -2 -10 -4 -10 -3 0 -8 5 -11 10 -3 6 -1 10 4 10 6 0 11 -4 11
-10z m240 -19 c0 -11 -4 -23 -10 -26 -6 -4 -10 5 -10 19 0 14 5 26 10 26 6 0
10 -9 10 -19z m-2815 -5 c0 0 5 -10 11 -21 8 -15 22 -20 50 -20 52 -1 95 -31
91 -65 -1 -16 -10 -26 -25 -30 -13 -3 -23 -8 -23 -12 2 -24 0 -29 -11 -25 -7
2 -18 -3 -25 -12 -11 -15 -12 -15 -13 0 0 9 -11 24 -25 33 -14 9 -23 21 -20
26 3 6 -1 7 -9 4 -19 -7 -21 17 -4 34 10 10 10 15 -2 22 -8 5 -23 7 -32 4 -13
-4 -17 1 -16 25 1 18 5 28 11 24 6 -4 8 0 4 11 -6 14 -3 16 16 10 12 -3 22 -7
22 -8z m2180 4 c3 -5 -1 -10 -9 -10 -9 0 -16 5 -16 10 0 6 4 10 9 10 6 0 13
-4 16 -10z m290 0 c3 -5 2 -10 -4 -10 -5 0 -13 5 -16 10 -3 6 -2 10 4 10 5 0
13 -4 16 -10z m252 -2 c5 -7 9 -30 9 -50 -1 -27 3 -38 14 -39 8 0 4 -5 -9 -10
-18 -7 -30 -5 -48 6 -24 16 -22 41 3 31 19 -7 18 28 -1 44 -8 7 -12 16 -9 21
8 13 30 11 41 -3z m273 -9 c0 -6 -4 -7 -10 -4 -5 3 -10 11 -10 16 0 6 5 7 10
4 6 -3 10 -11 10 -16z m-3814 -26 c-3 -3 -13 -2 -23 1 -17 7 -17 8 2 22 18 13
20 13 23 -1 2 -9 1 -19 -2 -22z m1995 27 c6 0 8 -4 4 -9 -3 -5 2 -17 11 -25
14 -15 12 -16 -23 -16 -21 0 -45 5 -53 10 -13 8 -12 10 3 10 10 0 15 4 12 10
-3 6 1 7 9 4 16 -6 23 10 9 19 -5 2 -2 2 5 0 8 -1 18 -3 23 -3z m906 -12 c6
-15 6 -31 -1 -50 -15 -41 -25 -34 -15 10 5 22 4 38 -1 40 -12 4 -13 22 -2 22
5 0 13 -10 19 -22z m293 12 c0 -5 -4 -10 -10 -10 -5 0 -10 5 -10 10 0 6 5 10
10 10 6 0 10 -4 10 -10z m-630 -20 c0 -5 -4 -10 -10 -10 -5 0 -10 5 -10 10 0
6 5 10 10 10 6 0 10 -4 10 -10z m1330 0 c0 -5 -2 -10 -4 -10 -3 0 -8 5 -11 10
-3 6 -1 10 4 10 6 0 11 -4 11 -10z m-902 -28 c2 -7 -3 -12 -12 -12 -9 0 -16 7
-16 16 0 17 22 14 28 -4z m322 8 c8 -5 11 -12 7 -16 -4 -4 -15 0 -24 9 -18 18
-8 23 17 7z m66 -10 c5 1 15 6 22 12 9 8 12 4 12 -15 0 -14 6 -28 13 -31 9 -5
9 -7 -1 -12 -10 -5 -9 -9 4 -19 11 -7 15 -19 11 -29 -9 -22 -29 -16 -42 12 -5
11 -18 23 -28 26 -15 4 -17 8 -8 24 9 17 7 21 -12 26 -18 5 -19 8 -7 15 9 7
17 6 21 0 3 -6 10 -10 15 -9z m559 -12 c1 -18 -5 -28 -19 -32 -26 -7 -36 1
-36 25 0 17 4 19 22 13 21 -6 22 -5 8 11 -13 16 -12 17 5 14 14 -3 20 -13 20
-31z m-3915 12 c0 -5 -7 -10 -16 -10 -8 0 -12 5 -9 10 3 6 10 10 16 10 5 0 9
-4 9 -10z m1071 -18 c27 -32 31 -43 20 -56 -9 -10 -5 -17 14 -30 14 -9 25 -25
25 -36 0 -13 7 -20 19 -20 11 0 22 -6 24 -12 3 -7 3 5 1 27 -2 22 -2 34 2 27
3 -6 9 -10 14 -7 5 3 6 -13 4 -34 -5 -45 12 -64 25 -29 9 21 10 21 10 -9 1
-20 -7 -41 -19 -53 -11 -11 -20 -28 -20 -38 0 -10 -4 -22 -10 -28 -5 -5 -12
-30 -15 -54 -2 -25 -9 -59 -14 -77 -5 -18 -7 -41 -4 -51 4 -17 -10 -25 -104
-56 -59 -20 -116 -36 -125 -36 -29 0 -48 -40 -48 -100 0 -64 -16 -114 -47
-154 -15 -18 -23 -42 -23 -67 0 -48 -8 -69 -25 -63 -7 3 -16 -3 -19 -14 -4
-11 -13 -23 -21 -26 -9 -3 -12 -14 -9 -30 3 -17 0 -26 -8 -26 -7 -1 -2 -10 11
-21 20 -16 22 -23 13 -42 l-11 -22 0 23 c-1 14 -7 22 -19 22 -10 0 -23 5 -29
11 -9 9 -10 6 -6 -12 6 -21 1 -19 -42 19 -27 23 -70 53 -97 65 -26 12 -48 24
-48 27 0 3 -4 11 -9 19 -8 12 -12 12 -25 2 -11 -9 -16 -10 -16 -2 0 6 -9 11
-20 11 -11 0 -23 6 -26 14 -3 8 -16 22 -30 30 -20 14 -23 14 -18 1 5 -11 -1
-15 -20 -15 -14 0 -26 -4 -26 -10 0 -11 -33 -14 -44 -3 -3 4 -13 8 -21 9 -18
3 -20 -23 -2 -29 9 -3 9 -7 -1 -19 -15 -19 0 -33 25 -24 9 4 20 2 23 -5 6 -8
13 -8 28 0 29 15 35 14 50 -9 10 -17 8 -21 -16 -34 -15 -9 -22 -15 -16 -16 18
0 27 -32 12 -41 -7 -4 -9 -11 -5 -15 4 -4 16 1 26 10 19 17 21 17 45 -1 24
-17 38 -52 15 -38 -5 4 -19 -3 -30 -16 -20 -24 -25 -39 -10 -39 14 0 23 -32
12 -43 -7 -7 -14 0 -21 19 -6 16 -15 38 -20 49 -9 18 -9 17 -4 -4 4 -16 3 -21
-5 -16 -7 4 -18 2 -25 -4 -17 -14 -31 2 -39 47 -6 30 -51 102 -69 110 -5 2 -8
10 -8 18 0 8 -6 14 -14 14 -8 0 -16 6 -18 12 -3 7 -19 13 -36 14 -26 1 -32 -2
-33 -20 0 -20 -1 -20 -10 3 -7 19 -5 27 12 42 26 22 40 24 57 7 16 -16 15 5
-2 55 -20 54 -2 55 22 0 l20 -46 7 31 c3 17 4 41 0 52 -4 11 -2 20 4 20 6 0
11 -4 11 -9 0 -5 10 -8 23 -8 22 -1 23 3 23 58 0 33 -4 59 -9 59 -4 0 -5 5 -2
10 5 8 11 7 20 0 8 -7 19 -9 25 -5 16 10 12 45 -5 45 -16 0 -20 12 -8 23 3 4
13 1 21 -6 13 -10 14 -8 10 16 -3 17 -1 27 7 27 6 0 17 11 23 25 15 32 30 32
38 1 6 -24 18 -28 41 -13 7 4 14 -1 19 -15 6 -21 7 -21 20 -3 12 15 16 16 30
4 15 -12 16 -11 10 18 -6 26 -4 32 13 38 28 9 27 33 -1 37 -22 3 -29 23 -9 23
5 0 13 3 17 8 4 4 2 7 -6 7 -10 0 -10 3 0 15 10 12 16 13 26 4 14 -12 14 -11
18 40 1 8 12 18 25 23 l24 8 -21 23 c-14 14 -18 27 -13 36 10 15 31 6 31 -13
0 -7 8 -20 18 -30 11 -9 25 -35 33 -59 l13 -42 4 35 c2 19 -1 36 -7 38 -15 5
-14 29 2 35 8 3 5 11 -10 24 -13 11 -23 26 -23 33 0 7 -7 10 -14 7 -10 -4 -13
-1 -10 7 3 8 1 17 -5 20 -6 4 -8 13 -4 22 4 11 8 12 20 3 12 -11 13 -8 7 16
-6 26 -5 28 20 23 23 -5 26 -3 20 15 -5 17 -3 19 20 13 19 -5 26 -3 26 9 0 8
4 15 9 15 6 0 7 -16 4 -37 -5 -31 -4 -35 10 -30 12 5 17 1 17 -14 0 -11 7 -22
15 -25 8 -4 13 -10 10 -14 -8 -13 40 -60 60 -60 10 0 15 3 12 7 -4 3 -2 12 3
18 7 9 6 16 -5 25 -23 19 -18 30 14 30 17 0 33 5 36 10 8 14 25 13 25 -2 0 -6
-7 -19 -15 -28 -12 -13 -13 -23 -6 -44 13 -32 35 -35 26 -3 -4 15 -3 18 3 9 7
-11 12 -11 25 2 21 22 30 20 22 -4 -3 -11 -4 -24 -1 -29 9 -14 56 12 56 31 0
9 3 23 6 32 4 12 0 16 -15 16 -25 0 -26 7 -5 31 14 16 13 18 -15 24 -17 3 -36
3 -42 -1 -9 -5 -10 -2 -5 12 14 34 12 49 -9 49 -13 0 -19 7 -19 18 2 20 -7 22
-25 5 -11 -11 -12 -9 -6 10 7 23 -10 32 -18 10 -2 -7 -8 -9 -13 -5 -5 5 2 17
16 27 17 13 26 15 29 7 5 -17 42 -51 58 -53 9 -2 12 4 8 16 -8 24 13 37 22 13
16 -43 130 -173 151 -173 9 0 -6 23 -34 53 -92 100 -120 139 -109 157 11 19
24 10 34 -22 l10 -33 -2 31 c-1 17 4 38 11 47 13 16 1 35 -35 55 -17 10 -10
32 10 32 7 0 19 -8 28 -18z m2382 -6 c4 -10 1 -13 -9 -9 -15 6 -19 23 -5 23 5
0 11 -7 14 -14z m-2234 -42 c1 -6 -6 -11 -14 -11 -17 0 -17 2 -8 36 6 23 7 23
14 5 4 -10 8 -24 8 -30z m1541 37 c0 -6 -4 -13 -10 -16 -5 -3 -10 1 -10 9 0 9
5 16 10 16 6 0 10 -4 10 -9z m33 -16 c-6 -16 -16 -19 -26 -8 -9 8 13 34 24 28
4 -3 6 -12 2 -20z m848 -28 c-13 -13 -21 5 -14 33 l6 24 9 -24 c5 -14 5 -27
-1 -33z m-686 33 c3 -5 1 -10 -4 -10 -6 0 -11 5 -11 10 0 6 2 10 4 10 3 0 8
-4 11 -10z m-2370 -10 c3 -5 -1 -10 -9 -10 -9 0 -16 5 -16 10 0 6 4 10 9 10 6
0 13 -4 16 -10z m1845 -6 c0 -8 -4 -12 -10 -9 -5 3 -10 10 -10 16 0 5 5 9 10
9 6 0 10 -7 10 -16z m-1183 -16 c-3 -8 -6 -5 -6 6 -1 11 2 17 5 13 3 -3 4 -12
1 -19z m693 17 c0 -9 -51 -25 -61 -19 -17 10 1 24 32 24 16 0 29 -2 29 -5z
m1293 -52 c-11 -27 -31 -13 -28 20 4 45 4 45 19 18 8 -14 12 -31 9 -38z m317
42 c0 -8 -4 -15 -10 -15 -5 0 -10 7 -10 15 0 8 5 15 10 15 6 0 10 -7 10 -15z
m130 7 c0 -4 -5 -13 -12 -20 -9 -9 -8 -15 8 -26 18 -14 18 -15 2 -21 -24 -9
-48 1 -48 20 0 9 7 18 15 21 8 4 15 12 15 20 0 8 5 14 10 14 6 0 10 -4 10 -8z
m-2649 -25 c-13 -13 -26 -3 -16 12 3 6 11 8 17 5 6 -4 6 -10 -1 -17z m829 13
c0 -5 -9 -10 -20 -10 -11 0 -20 5 -20 10 0 6 9 10 20 10 11 0 20 -4 20 -10z
m-890 -10 c0 -5 -4 -10 -10 -10 -5 0 -10 5 -10 10 0 6 5 10 10 10 6 0 10 -4
10 -10z m1957 3 c-4 -3 -2 -12 3 -18 8 -9 5 -14 -10 -18 -14 -4 -20 0 -20 12
0 20 8 31 23 31 6 0 7 -3 4 -7z m271 -12 c3 -8 -1 -12 -9 -9 -7 2 -15 10 -17
17 -3 8 1 12 9 9 7 -2 15 -10 17 -17z m532 -12 c0 -5 -4 -9 -10 -9 -5 0 -10 7
-10 16 0 8 5 12 10 9 6 -3 10 -10 10 -16z m-3080 1 c0 -5 -4 -10 -10 -10 -5 0
-10 5 -10 10 0 6 5 10 10 10 6 0 10 -4 10 -10z m2725 0 c3 -5 2 -10 -4 -10 -5
0 -13 5 -16 10 -3 6 -2 10 4 10 5 0 13 -4 16 -10z m163 -29 c-15 -5 -19 4 -11
24 6 18 7 18 13 -1 4 -10 3 -21 -2 -23z m-2953 10 c-3 -6 -11 -11 -17 -11 -6
0 -6 6 2 15 14 17 26 13 15 -4z m3180 9 c3 -5 -1 -10 -10 -10 -9 0 -13 5 -10
10 3 6 8 10 10 10 2 0 7 -4 10 -10z m-300 -10 c3 -5 -1 -10 -9 -10 -9 0 -16 5
-16 10 0 6 4 10 9 10 6 0 13 -4 16 -10z m-3250 -10 c3 -5 -1 -10 -10 -10 -9 0
-13 5 -10 10 3 6 8 10 10 10 2 0 7 -4 10 -10z m1822 -17 c0 -15 -7 -39 -17
-53 -17 -24 -23 -26 -90 -24 -100 4 -111 17 -26 33 29 5 62 21 84 39 20 17 39
31 42 31 3 1 6 -11 7 -26z m778 11 c-9 -9 -19 -13 -23 -10 -3 4 0 11 8 16 24
15 33 11 15 -6z m925 -35 c25 -23 37 -36 28 -29 -15 10 -19 9 -24 -3 -3 -8
-13 -14 -22 -12 -9 2 -21 4 -25 4 -5 1 -6 5 -3 10 3 4 -3 16 -13 25 -12 11
-21 13 -25 7 -8 -13 -38 -2 -33 12 2 6 14 12 27 14 13 2 26 6 29 8 9 9 16 5
61 -36z m-3031 22 c9 -6 10 -11 2 -15 -6 -4 -11 -2 -11 4 0 6 -4 8 -10 5 -5
-3 -10 -1 -10 4 0 13 10 14 29 2z m-79 -11 c-8 -5 -24 -9 -35 -9 l-20 0 20 9
c11 5 27 9 35 9 13 1 13 0 0 -9z m2320 -9 c0 -5 -7 -22 -15 -37 -14 -27 -13
-30 8 -46 18 -15 19 -18 5 -18 -11 0 -15 -5 -12 -14 4 -11 -2 -14 -25 -12 -37
3 -47 11 -33 29 11 13 10 36 -4 80 -6 20 -6 20 19 5 27 -18 39 -15 30 8 -3 8
1 14 11 14 9 0 16 -4 16 -9z m640 -1 c0 -5 -9 -14 -21 -20 -19 -11 -20 -12 -3
-24 12 -9 14 -15 5 -20 -8 -5 -7 -11 4 -22 8 -9 15 -20 15 -25 0 -15 -20 -10
-27 6 -3 9 -21 22 -39 30 -39 16 -46 45 -11 45 13 0 32 9 42 20 19 21 35 26
35 10z m-1080 -10 c0 -5 -4 -10 -10 -10 -5 0 -10 5 -10 10 0 6 5 10 10 10 6 0
10 -4 10 -10z m-1803 -15 c-2 -5 -9 -10 -15 -9 -7 1 -21 2 -32 3 -11 0 -20 6
-20 11 0 6 16 10 35 8 19 -1 34 -7 32 -13z m163 5 c0 -5 -4 -10 -10 -10 -5 0
-10 5 -10 10 0 6 5 10 10 10 6 0 10 -4 10 -10z m2795 -30 c-8 -13 -35 -1 -35
15 0 7 6 15 13 18 14 5 31 -19 22 -33z m-205 14 c0 -8 -4 -12 -10 -9 -5 3 -10
10 -10 16 0 5 5 9 10 9 6 0 10 -7 10 -16z m148 -35 c-18 -12 -23 8 -6 28 12
15 13 15 16 -2 2 -10 -2 -21 -10 -26z m-2768 21 c0 -5 -5 -10 -11 -10 -5 0 -7
5 -4 10 3 6 8 10 11 10 2 0 4 -4 4 -10z m1900 2 c0 -13 -12 -22 -22 -16 -10 6
-1 24 13 24 5 0 9 -4 9 -8z m-583 -24 c-3 -8 -6 -5 -6 6 -1 11 2 17 5 13 3 -3
4 -12 1 -19z m233 2 c0 -11 -4 -20 -10 -20 -5 0 -10 9 -10 20 0 11 5 20 10 20
6 0 10 -9 10 -20z m400 10 c0 -5 18 -10 40 -10 28 0 40 -4 40 -14 0 -22 -19
-30 -26 -11 -4 9 -13 14 -21 11 -7 -3 -23 0 -33 7 -21 13 -26 27 -10 27 6 0
10 -4 10 -10z m-2790 -20 c0 -13 -5 -18 -15 -14 -12 5 -13 10 -4 20 15 19 19
18 19 -6z m890 -5 c0 -8 -4 -15 -10 -15 -5 0 -7 7 -4 15 4 8 8 15 10 15 2 0 4
-7 4 -15z m2810 -25 c4 0 11 10 14 23 l6 22 15 -25 c23 -40 19 -50 -20 -50
-29 0 -35 4 -35 22 0 17 -3 19 -12 10 -16 -16 -28 -15 -28 3 0 7 8 18 18 24
13 8 19 6 26 -10 5 -10 12 -19 16 -19z m-944 2 c-2 -1 -15 -5 -30 -8 -19 -3
-24 -1 -20 10 7 18 36 26 46 12 4 -6 5 -12 4 -14z m220 -14 c-19 -27 -21 -19
-4 18 7 14 14 21 16 15 2 -6 -4 -21 -12 -33z m124 16 c0 -13 3 -14 14 -5 23
19 39 -13 43 -87 2 -37 5 -73 8 -80 3 -8 -11 1 -30 19 -19 19 -35 39 -35 46 0
18 10 16 26 -4 12 -16 13 -11 7 32 -7 59 -4 54 -34 58 -27 4 -40 37 -15 37 9
0 16 -7 16 -16z m-2540 -4 c0 -5 -4 -10 -10 -10 -5 0 -10 5 -10 10 0 6 5 10
10 10 6 0 10 -4 10 -10z m2280 -2 c0 -4 -13 -8 -30 -8 -16 0 -30 4 -30 8 0 5
14 9 30 9 17 0 30 -4 30 -9z m666 -26 c-4 -3 -11 0 -16 8 -15 24 -11 33 6 15
9 -9 13 -19 10 -23z m384 28 c0 -5 -4 -10 -10 -10 -5 0 -10 5 -10 10 0 6 5 10
10 10 6 0 10 -4 10 -10z m-3893 -45 c0 -36 -3 -43 -14 -34 -9 9 -13 8 -13 0 0
-7 -4 -9 -10 -6 -16 10 -13 65 4 59 7 -3 16 2 19 10 10 26 14 18 14 -29z m573
11 c0 -3 -4 -8 -10 -11 -5 -3 -10 -1 -10 4 0 6 5 11 10 11 6 0 10 -2 10 -4z
m3100 -11 c0 -8 -6 -15 -14 -15 -17 0 -28 14 -19 24 12 12 33 6 33 -9z m290 0
c7 -8 8 -15 2 -15 -5 0 -15 7 -22 15 -7 8 -8 15 -2 15 5 0 15 -7 22 -15z
m-950 -16 c0 -20 -8 -23 -34 -13 -25 10 -19 32 9 32 18 0 25 -6 25 -19z m50
11 c0 -5 -5 -10 -11 -10 -5 0 -7 5 -4 10 3 6 8 10 11 10 2 0 4 -4 4 -10z m478
-10 c7 -11 9 -20 4 -20 -4 0 -13 9 -20 20 -7 11 -9 20 -4 20 4 0 13 -9 20 -20z
m69 -22 c-3 -7 -5 -2 -5 12 0 14 2 19 5 13 2 -7 2 -19 0 -25z m193 6 c0 -8 -5
-12 -10 -9 -6 4 -8 11 -5 16 9 14 15 11 15 -7z m50 6 c0 -5 -4 -10 -10 -10 -5
0 -10 5 -10 10 0 6 5 10 10 10 6 0 10 -4 10 -10z m-3785 -21 c6 -16 12 -19 36
-14 18 4 29 3 29 -4 0 -6 -12 -11 -26 -11 -14 0 -34 -5 -45 -10 -11 -7 -19 -7
-19 -1 0 5 6 11 13 14 10 4 10 7 0 18 -15 15 -17 29 -4 29 5 0 13 -9 16 -21z
m-25 -9 c0 -5 -4 -10 -10 -10 -5 0 -10 5 -10 10 0 6 5 10 10 10 6 0 10 -4 10
-10z m460 -20 c0 -5 -2 -10 -4 -10 -3 0 -8 5 -11 10 -3 6 -1 10 4 10 6 0 11
-4 11 -10z m3120 6 c0 -3 -4 -8 -10 -11 -5 -3 -10 -1 -10 4 0 6 5 11 10 11 6
0 10 -2 10 -4z m-213 -32 c-9 -9 -28 6 -21 18 4 6 10 6 17 -1 6 -6 8 -13 4
-17z m-107 -5 c0 -5 -4 -9 -10 -9 -5 0 -10 7 -10 16 0 8 5 12 10 9 6 -3 10
-10 10 -16z m-3277 -9 c-5 -21 -33 -49 -33 -33 0 9 29 53 35 53 2 0 1 -9 -2
-20z m2987 -20 c5 0 15 -10 21 -22 11 -21 11 -21 -18 3 -18 15 -28 30 -24 39
4 12 6 12 9 -2 2 -10 7 -18 12 -18z m143 -14 c16 -14 26 -30 22 -35 -14 -23 7
-31 26 -10 10 12 19 17 19 10 0 -8 7 -10 20 -6 11 4 20 2 20 -4 0 -6 -9 -15
-20 -21 -30 -16 -26 -42 5 -34 27 7 30 -1 15 -40 -5 -14 -16 -26 -25 -26 -8 0
-15 -9 -15 -20 0 -11 5 -20 11 -20 8 0 8 -4 -1 -15 -10 -12 -7 -15 15 -21 23
-6 26 -11 23 -35 -3 -16 0 -30 6 -32 6 -3 1 -13 -11 -24 -13 -11 -23 -27 -23
-34 0 -11 -2 -11 -10 1 -5 8 -10 29 -10 46 0 37 -18 75 -50 107 -43 42 -120
160 -119 181 1 15 3 16 6 5 4 -16 31 -29 61 -29 8 0 2 15 -14 39 -43 66 -16
75 49 17z m-2813 24 c0 -5 -4 -10 -10 -10 -5 0 -10 5 -10 10 0 6 5 10 10 10 6
0 10 -4 10 -10z m3020 0 c0 -5 -4 -10 -10 -10 -5 0 -10 5 -10 10 0 6 5 10 10
10 6 0 10 -4 10 -10z m-2177 -25 c3 -16 0 -24 -7 -22 -12 4 -18 47 -6 47 4 0
10 -11 13 -25z m2461 10 c3 -8 1 -15 -3 -15 -5 0 -11 7 -15 15 -3 8 -1 15 3
15 5 0 11 -7 15 -15z m-384 -15 c0 -5 -4 -10 -10 -10 -5 0 -10 5 -10 10 0 6 5
10 10 10 6 0 10 -4 10 -10z m148 -7 c-2 -10 -10 -18 -18 -18 -8 0 -16 8 -18
18 -2 12 3 17 18 17 15 0 20 -5 18 -17z m237 -32 c34 -42 114 -196 107 -206
-16 -22 -63 -58 -57 -45 3 10 -2 15 -17 16 -13 1 -30 4 -38 5 -9 3 -16 -5 -18
-18 -2 -13 -10 -23 -18 -23 -17 0 -19 26 -3 36 6 4 9 19 5 36 -5 26 -4 29 9
18 9 -7 18 -10 22 -7 3 4 -5 10 -18 16 -13 5 -35 13 -49 19 l-25 10 25 10 c14
6 19 11 13 11 -22 1 -15 41 7 41 11 0 20 5 20 10 0 6 -4 10 -10 10 -5 0 -10 5
-10 10 0 7 6 7 19 1 16 -9 20 -7 23 13 4 18 -3 31 -23 49 -16 13 -25 27 -22
31 7 7 31 -10 58 -43z m-3645 5 c0 -8 -7 -16 -15 -20 -13 -4 -14 -2 -5 14 13
23 20 26 20 6z m3441 -43 c39 -33 49 -44 49 -59 0 -22 -16 -17 -35 12 l-16 25
-20 -22 c-10 -12 -19 -31 -19 -41 0 -11 -7 -26 -15 -34 -13 -14 -15 -14 -15 0
0 9 -8 16 -18 16 -14 0 -17 9 -17 49 0 52 10 75 21 47 8 -20 24 -21 24 -2 0
13 13 23 32 25 4 1 17 -7 29 -16z m-3445 -6 c10 4 14 -4 14 -25 0 -37 -19 -53
-27 -23 -3 12 -9 21 -14 21 -5 0 -9 10 -9 22 0 16 3 19 11 11 6 -6 18 -9 25
-6z m144 -24 c0 -15 -5 -15 -37 -7 -33 9 -28 21 7 20 17 -1 30 -7 30 -13z
m1930 -13 c8 -5 11 -10 5 -10 -5 0 -17 5 -25 10 -8 5 -10 10 -5 10 6 0 17 -5
25 -10z m-2100 -10 c0 -5 -5 -10 -11 -10 -5 0 -7 5 -4 10 3 6 8 10 11 10 2 0
4 -4 4 -10z m317 -12 c-3 -8 -6 -5 -6 6 -1 11 2 17 5 13 3 -3 4 -12 1 -19z
m1787 -11 c8 -13 8 -20 -3 -26 -11 -7 -7 -15 17 -37 34 -33 50 -89 27 -98 -21
-8 -19 -32 5 -56 21 -21 25 -44 22 -117 -2 -33 -6 -43 -19 -44 -11 0 -13 -3
-5 -6 6 -2 12 -11 12 -18 0 -7 -6 -16 -12 -19 -10 -3 -8 -8 4 -19 13 -10 15
-16 6 -25 -7 -7 -19 -12 -27 -12 -8 0 -22 -7 -31 -15 -15 -14 -18 -14 -30 0
-17 21 -82 21 -74 0 4 -8 1 -15 -6 -15 -7 0 -10 -7 -6 -16 5 -13 1 -15 -23
-12 -17 2 -28 1 -25 -4 15 -25 -22 -1 -73 46 -32 29 -86 71 -121 93 -34 22
-59 43 -55 47 5 5 -2 5 -14 2 -12 -4 -24 -2 -28 4 -9 14 -7 16 25 25 25 7 25
7 5 -10 -11 -9 -15 -14 -8 -11 15 8 44 -4 37 -15 -7 -12 41 -30 60 -23 8 3 17
13 19 22 4 16 5 16 6 0 0 -9 -3 -20 -9 -23 -5 -3 -10 -11 -10 -17 0 -7 4 -7
13 -1 6 5 27 9 46 7 22 -1 29 1 20 7 -8 5 -22 6 -31 3 -15 -4 -16 -1 -7 28 5
18 7 45 4 59 -5 20 0 30 19 43 14 9 25 22 23 29 -1 6 3 11 10 10 14 -3 25 24
13 32 -6 4 -10 1 -10 -5 0 -7 -6 -8 -19 0 -32 17 -62 12 -68 -11 -4 -15 -8
-17 -14 -8 -5 8 -2 20 7 31 9 9 13 22 9 28 -5 8 -1 8 12 -1 13 -8 30 -9 49 -3
l29 8 -37 4 c-33 3 -38 7 -38 28 0 27 17 32 27 7 5 -14 8 -13 15 6 4 12 12 19
18 16 5 -3 10 1 10 9 0 9 -5 16 -12 16 -9 0 -9 3 0 12 13 13 42 -6 42 -28 0
-8 6 -14 14 -14 17 0 41 28 32 37 -8 9 74 31 92 25 6 -2 12 -10 12 -18 0 -8 7
-14 15 -14 12 0 14 8 9 41 -5 32 -4 41 6 37 8 -2 18 -12 24 -21z m1371 13 c3
-5 1 -10 -4 -10 -6 0 -11 5 -11 10 0 6 2 10 4 10 3 0 8 -4 11 -10z m85 -21 c0
-5 -4 -9 -10 -9 -5 0 -10 7 -10 16 0 8 5 12 10 9 6 -3 10 -10 10 -16z m-3445
1 c-3 -5 -14 -10 -23 -10 -15 0 -15 2 -2 10 20 13 33 13 25 0z m3365 -21 c0
-6 -4 -7 -10 -4 -5 3 -10 11 -10 16 0 6 5 7 10 4 6 -3 10 -11 10 -16z m-140 1
c0 -5 -4 -10 -10 -10 -5 0 -10 5 -10 10 0 6 5 10 10 10 6 0 10 -4 10 -10z
m-3170 -10 c0 -5 -5 -10 -11 -10 -5 0 -7 5 -4 10 3 6 8 10 11 10 2 0 4 -4 4
-10z m3768 -19 c3 -8 -1 -12 -9 -9 -7 2 -15 10 -17 17 -3 8 1 12 9 9 7 -2 15
-10 17 -17z m-493 -30 c2 -17 1 -31 -3 -32 -4 0 -16 -2 -28 -3 -13 -2 -20 4
-21 16 -1 12 5 18 18 18 13 0 19 7 19 22 0 30 10 16 15 -21z m145 -7 c0 -4 -9
1 -20 11 -11 10 -20 23 -20 28 0 6 9 1 20 -11 11 -12 20 -24 20 -28z m330 6
c0 -5 -4 -10 -10 -10 -5 0 -10 5 -10 10 0 6 5 10 10 10 6 0 10 -4 10 -10z
m-565 -40 c3 -5 1 -10 -4 -10 -6 0 -11 -5 -11 -10 0 -7 6 -7 19 0 28 14 44 12
38 -5 -4 -8 -2 -17 3 -20 6 -4 10 -9 10 -13 0 -11 -60 -42 -81 -42 -20 0 -24
-13 -20 -65 4 -38 -4 -31 -22 22 -13 39 -13 44 4 62 11 11 26 17 37 14 11 -2
23 1 27 8 5 7 4 10 -3 5 -6 -3 -16 2 -21 13 -17 31 6 70 24 41z m143 -32 c16
-16 15 -28 -3 -28 -8 0 -15 -7 -15 -15 0 -17 -2 -18 -24 -9 -9 3 -16 11 -16
16 0 6 7 7 16 4 13 -5 15 -1 12 19 -6 27 10 33 30 13z m-3368 -49 c0 -12 -7
-19 -20 -19 -24 0 -27 -15 -4 -24 8 -3 12 -11 8 -17 -3 -6 -1 -15 6 -19 7 -4
9 -16 5 -29 -5 -17 -14 -21 -45 -21 -21 0 -40 -4 -42 -9 -2 -5 -13 -5 -25 0
-19 7 -21 13 -16 43 3 22 1 42 -7 51 -7 9 -10 19 -6 22 4 4 11 2 15 -5 10 -16
69 -12 75 5 3 7 12 13 21 13 8 0 15 9 15 21 0 11 5 17 10 14 6 -3 10 -15 10
-26z m-90 1 c0 -11 -4 -20 -10 -20 -5 0 -10 9 -10 20 0 11 5 20 10 20 6 0 10
-9 10 -20z m130 -14 c0 -3 -4 -8 -10 -11 -5 -3 -10 -1 -10 4 0 6 5 11 10 11 6
0 10 -2 10 -4z m3309 -32 c29 -49 26 -55 -8 -15 -17 19 -28 38 -25 43 8 13 11
10 33 -28z m181 17 c0 -6 -4 -13 -10 -16 -5 -3 -10 1 -10 9 0 9 5 16 10 16 6
0 10 -4 10 -9z m-240 -31 c0 -5 -4 -10 -10 -10 -5 0 -10 5 -10 10 0 6 5 10 10
10 6 0 10 -4 10 -10z m-1620 -48 c0 -7 -4 -10 -10 -7 -5 3 -10 16 -10 28 0 18
2 19 10 7 5 -8 10 -21 10 -28z m1840 4 c0 -9 -30 -14 -35 -6 -4 6 3 10 14 10
12 0 21 -2 21 -4z m-3230 -15 c0 -9 -24 -21 -42 -21 -6 0 -6 6 2 15 14 16 40
20 40 6z m3116 -12 c3 -6 2 -15 -4 -21 -7 -7 -14 -3 -21 11 -10 17 -9 21 3 21
8 0 18 -5 22 -11z m-3416 -66 c0 -24 -25 -9 -28 17 -3 21 -2 22 12 11 9 -7 16
-20 16 -28z m681 -16 c-8 -8 -11 -7 -11 4 0 20 13 34 18 19 3 -7 -1 -17 -7
-23z m-324 -25 c10 8 17 7 27 -8 8 -10 12 -24 9 -31 -3 -7 -1 -13 5 -13 5 0
12 -7 15 -14 4 -10 1 -13 -8 -10 -10 4 -12 0 -8 -15 4 -17 1 -21 -17 -21 -19
0 -21 4 -16 25 7 27 -19 79 -35 69 -5 -3 -14 -2 -20 2 -8 4 -7 9 2 15 8 4 18
4 23 -1 6 -6 15 -5 23 2z m3429 -18 c35 9 31 -23 -6 -56 -28 -25 -68 -29 -54
-6 3 5 13 7 21 4 11 -5 13 -2 9 10 -3 8 -6 22 -6 30 0 8 -7 14 -15 14 -15 0
-20 12 -9 23 4 3 13 -1 22 -9 9 -10 24 -13 38 -10z m-3776 -17 c11 -5 9 -6 -4
-4 -11 1 -21 9 -23 17 -3 10 -2 11 4 4 4 -6 15 -14 23 -17z m430 -7 c0 -5 -4
-10 -10 -10 -5 0 -10 5 -10 10 0 6 5 10 10 10 6 0 10 -4 10 -10z m1659 -53 c6
10 11 14 11 9 0 -5 8 -3 18 4 9 7 0 -3 -22 -23 -21 -19 -53 -42 -70 -51 l-31
-18 34 30 c34 29 34 30 13 41 -12 6 -22 19 -22 28 0 13 7 10 29 -11 27 -26 30
-27 40 -9z m-2029 3 c0 -5 -5 -10 -11 -10 -5 0 -7 5 -4 10 3 6 8 10 11 10 2 0
4 -4 4 -10z m587 -12 c-3 -8 -6 -5 -6 6 -1 11 2 17 5 13 3 -3 4 -12 1 -19z
m1221 -10 c-10 -7 -10 -11 -1 -15 7 -2 23 -13 35 -24 16 -13 8 -11 -24 7 -60
32 -67 43 -28 42 22 -1 27 -4 18 -10z m39 -3 c0 -8 -4 -12 -9 -9 -5 3 -6 10
-3 15 9 13 12 11 12 -6z m117 9 c16 -6 12 -24 -5 -24 -6 0 -7 5 -3 12 5 8 2 9
-10 5 -10 -4 -15 -3 -11 3 7 12 8 12 29 4z m-1504 -13 c0 -6 -4 -13 -10 -16
-5 -3 -10 1 -10 9 0 9 5 16 10 16 6 0 10 -4 10 -9z m-335 -21 c3 -5 1 -10 -4
-10 -6 0 -11 5 -11 10 0 6 2 10 4 10 3 0 8 -4 11 -10z m375 1 c0 -12 -20 -25
-27 -18 -7 7 6 27 18 27 5 0 9 -4 9 -9z m3140 -1 c0 -5 -5 -10 -11 -10 -5 0
-7 5 -4 10 3 6 8 10 11 10 2 0 4 -4 4 -10z m-376 -46 c3 -8 2 -12 -4 -9 -6 3
-10 10 -10 16 0 14 7 11 14 -7z m-3097 -46 c-2 -7 -1 -20 4 -29 6 -12 3 -18
-10 -22 -22 -6 -35 2 -44 26 -6 15 -4 16 13 7 17 -9 20 -8 20 10 0 11 5 20 11
20 6 0 9 -6 6 -12z m43 2 c0 -5 -4 -10 -10 -10 -5 0 -10 5 -10 10 0 6 5 10 10
10 6 0 10 -4 10 -10z m2544 -72 c-4 -20 0 -29 15 -38 28 -15 26 -28 -3 -23
-28 6 -34 23 -28 77 3 26 7 34 13 25 5 -8 6 -26 3 -41z m-2364 -98 c0 -5 -4
-10 -10 -10 -5 0 -10 5 -10 10 0 6 5 10 10 10 6 0 10 -4 10 -10z m2355 -268
c-8 -8 -25 10 -19 20 4 6 9 5 15 -3 4 -7 6 -15 4 -17z m43 -75 c2 -15 -1 -27
-7 -27 -6 0 -11 3 -12 8 0 4 -2 18 -5 30 -3 16 0 22 8 20 7 -3 14 -17 16 -31z
m-41 -9 c-3 -8 -6 -5 -6 6 -1 11 2 17 5 13 3 -3 4 -12 1 -19z"/>
<path d="M1136 3095 c-3 -8 -1 -15 4 -15 6 0 10 7 10 15 0 8 -2 15 -4 15 -2 0
-6 -7 -10 -15z"/>
<path d="M1310 2640 c0 -5 5 -10 11 -10 5 0 7 5 4 10 -3 6 -8 10 -11 10 -2 0
-4 -4 -4 -10z"/>
<path d="M1265 2569 c-10 -15 3 -25 16 -12 7 7 7 13 1 17 -6 3 -14 1 -17 -5z"/>
<path d="M1085 2624 c9 -9 18 -14 21 -11 9 9 -6 27 -22 27 -13 0 -13 -2 1 -16z"/>
<path d="M1869 2496 c6 -7 9 -20 5 -29 -3 -8 -1 -18 5 -22 6 -3 11 1 11 9 0 9
5 16 10 16 6 0 5 8 -2 20 -7 11 -19 20 -27 20 -10 0 -11 -3 -2 -14z"/>
<path d="M2230 2259 c0 -5 5 -7 10 -4 6 3 10 8 10 11 0 2 -4 4 -10 4 -5 0 -10
-5 -10 -11z"/>
<path d="M2500 2276 c0 -2 7 -7 16 -10 8 -3 12 -2 9 4 -6 10 -25 14 -25 6z"/>
<path d="M380 1896 c0 -8 -5 -16 -11 -18 -7 -2 -10 -9 -8 -16 3 -9 10 -8 26 3
13 9 20 22 17 30 -8 19 -24 19 -24 1z"/>
<path d="M410 1875 c-10 -12 -9 -15 6 -15 11 0 25 4 32 9 11 7 10 10 -3 15
-22 8 -21 8 -35 -9z"/>
<path d="M437 1632 c-9 -2 -15 -8 -11 -13 3 -5 10 -7 15 -4 5 4 9 -1 9 -10 0
-10 -6 -15 -13 -12 -22 8 -37 -26 -21 -48 8 -10 17 -16 20 -12 4 3 14 3 23 -2
18 -9 70 37 63 57 -2 7 1 12 7 12 6 0 11 5 11 10 0 22 -28 9 -34 -16 -6 -21
-9 -24 -21 -14 -8 7 -12 16 -9 21 8 14 -19 35 -39 31z m53 -76 c0 -2 -7 -6
-15 -10 -8 -3 -15 -1 -15 4 0 6 7 10 15 10 8 0 15 -2 15 -4z"/>
<path d="M1261 1683 c-1 -6 -4 -20 -7 -30 -5 -17 -5 -17 6 0 6 10 9 23 6 30
-3 9 -5 9 -5 0z"/>
<path d="M413 1241 c1 -15 4 -17 14 -9 17 14 16 28 -1 28 -8 0 -14 -9 -13 -19z"/>
<path d="M576 1001 c-3 -5 1 -11 9 -15 8 -3 15 -1 15 4 0 13 -18 22 -24 11z"/>
<path d="M525 990 c-6 -11 0 -14 48 -25 22 -4 26 -9 18 -19 -8 -10 -5 -16 15
-24 33 -16 33 -15 27 9 -3 11 -23 31 -44 45 -42 26 -55 29 -64 14z"/>
<path d="M620 976 c0 -2 14 -20 30 -41 21 -27 30 -33 30 -20 0 10 -11 28 -26
41 -24 23 -34 29 -34 20z"/>
<path d="M395 760 c3 -5 8 -10 11 -10 2 0 4 5 4 10 0 6 -5 10 -11 10 -5 0 -7
-4 -4 -10z"/>
<path d="M3263 1319 c-26 -10 -30 -24 -8 -33 8 -3 15 -1 15 5 0 6 7 9 15 5 9
-3 15 0 15 9 0 20 -11 24 -37 14z"/>
<path d="M3310 1160 c0 -5 5 -10 11 -10 5 0 7 5 4 10 -3 6 -8 10 -11 10 -2 0
-4 -4 -4 -10z"/>
<path d="M3769 1200 c25 -22 41 -26 41 -10 0 11 -33 30 -52 30 -7 -1 -3 -9 11
-20z"/>
<path d="M1904 970 c-1 -17 3 -30 7 -30 5 0 9 14 9 30 0 39 -15 39 -16 0z"/>
<path d="M1849 867 c7 -7 14 -8 21 -1 6 6 2 10 -12 11 -16 2 -18 -1 -9 -10z"/>
<path d="M1900 870 c-9 -6 -10 -10 -3 -10 6 0 15 5 18 10 8 12 4 12 -15 0z"/>
<path d="M1900 825 c0 -2 6 -8 13 -14 10 -8 14 -7 14 2 0 8 -6 14 -14 14 -7 0
-13 -1 -13 -2z"/>
<path d="M3581 3294 c0 -11 3 -14 6 -6 3 7 2 16 -1 19 -3 4 -6 -2 -5 -13z"/>
<path d="M3707 3293 c5 -12 2 -15 -9 -10 -9 3 -23 0 -31 -6 -12 -10 -11 -15 6
-31 20 -19 20 -19 15 1 -4 16 -2 19 13 16 23 -6 50 13 43 31 -2 6 -13 12 -24
13 -13 1 -17 -3 -13 -14z"/>
<path d="M3832 3249 c-8 -12 -9 -18 -3 -15 6 4 19 -2 31 -14 28 -28 45 -25 23
5 -10 13 -23 23 -30 20 -7 -2 -10 2 -6 11 8 21 0 17 -15 -7z"/>
<path d="M3310 3210 c-9 -6 -10 -10 -3 -10 6 0 15 5 18 10 8 12 4 12 -15 0z"/>
<path d="M3830 3216 c0 -2 7 -9 15 -16 9 -7 15 -8 15 -2 0 5 -7 12 -15 16 -8
3 -15 4 -15 2z"/>
<path d="M3920 3183 c0 -17 16 -31 27 -25 9 6 6 11 -7 20 -11 7 -20 9 -20 5z"/>
<path d="M3875 3130 c-3 -5 1 -10 9 -10 9 0 16 5 16 10 0 6 -4 10 -9 10 -6 0
-13 -4 -16 -10z"/>
<path d="M4010 3057 c0 -17 29 -57 41 -57 13 0 11 32 -5 53 -15 20 -36 23 -36
4z"/>
<path d="M185 2914 c9 -9 19 -13 23 -10 3 4 0 11 -8 16 -24 15 -33 11 -15 -6z"/>
<path d="M190 2809 c0 -5 5 -7 10 -4 6 3 10 8 10 11 0 2 -4 4 -10 4 -5 0 -10
-5 -10 -11z"/>
<path d="M717 2753 c-4 -3 -7 -15 -7 -26 0 -19 1 -19 20 -2 11 10 17 22 14 26
-6 11 -18 12 -27 2z"/>
<path d="M450 2719 c0 -6 -6 -9 -14 -6 -10 4 -14 0 -13 -14 1 -22 15 -24 38
-6 14 10 14 14 3 25 -10 9 -14 9 -14 1z"/>
<path d="M575 2720 c3 -5 8 -10 11 -10 2 0 4 5 4 10 0 6 -5 10 -11 10 -5 0 -7
-4 -4 -10z"/>
<path d="M154 2711 c4 -6 13 -11 20 -11 7 0 21 -9 31 -20 21 -24 37 -26 29 -5
-4 8 -12 15 -19 15 -7 0 -15 4 -17 9 -1 4 -14 12 -27 16 -16 5 -21 4 -17 -4z"/>
<path d="M4030 2681 c0 -6 4 -13 10 -16 6 -3 7 1 4 9 -7 18 -14 21 -14 7z"/>
<path d="M480 2664 c0 -8 5 -12 10 -9 6 3 10 10 10 16 0 5 -4 9 -10 9 -5 0
-10 -7 -10 -16z"/>
<path d="M265 2580 c3 -5 8 -10 11 -10 2 0 4 5 4 10 0 6 -5 10 -11 10 -5 0 -7
-4 -4 -10z"/>
<path d="M336 2521 c-14 -16 -15 -19 -2 -24 9 -4 16 2 20 16 7 29 3 31 -18 8z"/>
<path d="M462 2513 c-6 -3 -10 -9 -6 -14 3 -5 -2 -9 -11 -9 -10 0 -13 5 -9 13
4 6 3 9 -1 4 -16 -14 -12 -46 8 -51 13 -3 17 0 13 10 -4 11 -2 12 14 4 26 -14
33 -13 27 4 -3 8 -1 16 6 19 7 2 4 8 -8 14 -11 6 -26 8 -33 6z"/>
<path d="M4030 2491 c0 -5 5 -13 10 -16 6 -3 10 -2 10 4 0 5 -4 13 -10 16 -5
3 -10 2 -10 -4z"/>
<path d="M3891 1464 c0 -11 3 -14 6 -6 3 7 2 16 -1 19 -3 4 -6 -2 -5 -13z"/>
<path d="M3600 827 c0 -10 5 -15 10 -12 6 3 10 -1 10 -9 0 -10 -6 -13 -15 -10
-11 5 -15 -1 -16 -22 -4 -78 -3 -104 4 -104 4 0 7 -6 7 -14 0 -21 22 -25 53
-9 31 15 34 25 12 43 -9 8 -12 22 -8 42 6 29 4 31 -20 26 -20 -4 -24 -2 -19
11 3 9 9 19 14 22 5 3 0 17 -11 30 -17 21 -20 21 -21 6z"/>
<path d="M3790 691 c0 -5 -3 -17 -7 -27 -5 -13 -3 -16 9 -12 9 4 21 1 27 -5
12 -12 14 -3 5 31 -6 21 -34 32 -34 13z"/>
<path d="M0 516 c0 -9 5 -16 10 -16 6 0 10 4 10 9 0 6 -4 13 -10 16 -5 3 -10
-1 -10 -9z"/>
<path d="M256 477 c-10 -14 -14 -16 -10 -4 7 20 -14 23 -22 3 -3 -8 -12 -12
-20 -9 -21 8 -17 -15 5 -26 16 -9 18 -20 16 -68 -1 -32 -6 -66 -10 -75 -5 -14
-2 -18 14 -18 13 0 21 6 21 16 0 12 7 15 26 11 20 -4 28 0 32 15 4 16 11 19
34 14 25 -5 27 -4 18 13 -7 15 -5 22 13 35 16 12 17 16 5 12 -10 -3 -18 -1
-18 5 0 13 -46 69 -70 86 -15 11 -20 9 -34 -10z"/>
<path d="M3125 280 c-3 -5 -1 -10 4 -10 6 0 11 5 11 10 0 6 -2 10 -4 10 -3 0
-8 -4 -11 -10z"/>
<path d="M3131 194 c0 -11 3 -14 6 -6 3 7 2 16 -1 19 -3 4 -6 -2 -5 -13z"/>
<path d="M9 63 c-13 -16 -12 -17 4 -4 16 13 21 21 13 21 -2 0 -10 -8 -17 -17z"/>
<path d="M500 9 c0 -5 5 -7 10 -4 6 3 10 8 10 11 0 2 -4 4 -10 4 -5 0 -10 -5
-10 -11z"/>
</g>
</svg>
